{"glyphs":{"0":{"ha":876,"x_min":0,"x_max":0,"o":"m 439 -21 b 53 479 168 -21 53 207 b 439 981 53 751 168 981 b 825 479 710 981 825 751 b 439 -21 825 207 710 -21 m 439 117 b 664 479 608 117 664 279 b 439 843 664 679 608 843 b 213 479 269 843 213 679 b 439 117 213 279 269 117 "},"1":{"ha":507,"x_min":0,"x_max":0,"o":"m 406 960 l 406 0 l 244 0 l 244 696 b 43 640 188 640 124 640 l 43 756 b 276 960 217 756 267 842 "},"2":{"ha":783,"x_min":0,"x_max":0,"o":"m 63 619 b 419 981 63 826 174 981 b 738 692 597 981 738 875 b 249 139 738 386 328 335 l 249 136 l 728 136 l 728 0 l 39 0 b 288 386 39 169 140 293 b 576 685 464 503 576 549 b 415 843 576 764 539 843 b 218 619 272 843 218 751 "},"3":{"ha":803,"x_min":0,"x_max":0,"o":"m 49 669 b 411 981 49 849 171 981 b 731 715 581 981 731 885 b 586 510 731 613 678 549 l 586 507 b 763 269 717 469 763 383 b 414 -21 763 81 622 -21 b 24 329 161 -21 24 108 l 179 329 b 403 117 179 200 239 117 b 603 274 547 117 603 172 b 408 435 603 406 507 435 l 322 435 l 322 563 l 403 563 b 569 703 503 563 569 604 b 406 843 569 782 519 843 b 206 669 254 843 206 764 "},"4":{"ha":811,"x_min":0,"x_max":0,"o":"m 488 0 l 488 218 l 33 218 l 33 368 l 488 960 l 649 960 l 649 354 l 783 354 l 783 218 l 649 218 l 649 0 m 176 354 l 488 354 l 488 760 "},"5":{"ha":790,"x_min":0,"x_max":0,"o":"m 439 647 b 750 326 624 647 750 514 b 396 -21 750 113 596 -21 b 28 283 161 -21 33 118 l 188 283 b 388 117 197 197 254 117 b 589 328 506 117 589 189 b 396 519 589 458 513 519 b 207 436 321 519 253 493 l 44 436 l 149 960 l 701 960 l 701 824 l 269 824 l 218 567 l 218 564 b 439 647 268 615 339 647 "},"6":{"ha":825,"x_min":0,"x_max":0,"o":"m 214 510 b 461 635 261 588 350 635 b 779 315 650 635 779 504 b 432 -21 779 126 647 -21 b 53 476 151 -21 53 189 b 432 981 53 804 190 981 b 753 717 613 981 733 861 l 592 717 b 431 849 582 790 532 849 b 214 513 257 849 217 688 l 214 510 m 426 111 b 622 307 550 111 622 190 b 435 503 622 429 544 503 b 222 304 307 503 222 422 b 426 111 222 190 299 111 "},"7":{"ha":726,"x_min":0,"x_max":0,"o":"m 707 960 l 707 838 b 342 0 489 656 342 306 l 172 0 b 532 821 172 317 361 669 l 532 824 l 29 824 l 29 960 "},"8":{"ha":822,"x_min":0,"x_max":0,"o":"m 40 271 b 218 511 40 403 126 471 l 218 514 b 86 718 150 550 86 610 b 411 981 86 883 224 981 b 736 718 599 981 736 883 b 604 514 736 610 671 550 l 604 511 b 783 271 694 471 783 403 b 411 -21 783 76 621 -21 b 40 271 201 -21 40 76 m 411 571 b 585 711 518 571 585 618 b 411 853 585 803 518 853 b 238 711 304 853 238 803 b 411 571 238 618 304 571 m 411 111 b 622 281 542 111 622 175 b 411 449 622 385 542 449 b 200 281 282 449 200 385 b 411 111 200 175 282 111 "},"9":{"ha":821,"x_min":0,"x_max":0,"o":"m 613 450 b 365 325 565 372 476 325 b 47 644 176 325 47 456 b 394 981 47 833 179 981 b 774 483 675 981 774 771 b 394 -21 774 156 636 -21 b 74 243 214 -21 93 99 l 235 243 b 396 111 244 169 294 111 b 613 447 569 111 610 272 l 613 450 m 400 849 b 204 653 276 849 204 769 b 392 457 204 531 282 457 b 604 656 519 457 604 538 b 400 849 604 769 528 849 "},"A":{"ha":921,"x_min":0,"x_max":0,"o":"m 257 235 l 176 0 l 8 0 l 374 993 l 547 993 l 911 0 l 743 0 l 663 235 m 618 372 l 463 842 l 460 842 l 303 372 "},"Á":{"ha":921,"x_min":0,"x_max":0,"o":"m 631 1288 l 515 1106 l 401 1106 l 461 1288 m 257 235 l 176 0 l 8 0 l 374 993 l 547 993 l 911 0 l 743 0 l 663 235 m 618 372 l 463 842 l 460 842 l 303 372 "},"Ă":{"ha":921,"x_min":0,"x_max":0,"o":"m 461 1100 b 269 1288 353 1100 274 1164 l 367 1288 b 461 1200 371 1229 401 1200 b 554 1288 521 1200 550 1229 l 651 1288 b 461 1100 646 1168 571 1100 m 257 235 l 176 0 l 8 0 l 374 993 l 547 993 l 911 0 l 743 0 l 663 235 m 618 372 l 463 842 l 460 842 l 303 372 "},"Â":{"ha":921,"x_min":0,"x_max":0,"o":"m 385 1289 l 539 1289 l 674 1107 l 536 1107 l 463 1217 l 460 1217 l 388 1107 l 250 1107 m 257 235 l 176 0 l 8 0 l 374 993 l 547 993 l 911 0 l 743 0 l 663 235 m 618 372 l 463 842 l 460 842 l 303 372 "},"Ä":{"ha":921,"x_min":0,"x_max":0,"o":"m 261 1208 b 343 1290 261 1253 290 1290 b 424 1208 394 1290 424 1253 b 343 1129 424 1167 394 1129 b 261 1208 290 1129 261 1167 m 499 1208 b 581 1290 499 1253 528 1290 b 661 1208 632 1290 661 1253 b 581 1129 661 1167 632 1129 b 499 1208 528 1129 499 1167 m 257 235 l 176 0 l 8 0 l 374 993 l 547 993 l 911 0 l 743 0 l 663 235 m 618 372 l 463 842 l 460 842 l 303 372 "},"À":{"ha":921,"x_min":0,"x_max":0,"o":"m 519 1106 l 406 1106 l 290 1288 l 460 1288 m 257 235 l 176 0 l 8 0 l 374 993 l 547 993 l 911 0 l 743 0 l 663 235 m 618 372 l 463 842 l 460 842 l 303 372 "},"Ā":{"ha":921,"x_min":0,"x_max":0,"o":"m 647 1256 l 647 1144 l 276 1144 l 276 1256 m 257 235 l 176 0 l 8 0 l 374 993 l 547 993 l 911 0 l 743 0 l 663 235 m 618 372 l 463 842 l 460 842 l 303 372 "},"Ą":{"ha":921,"x_min":0,"x_max":0,"o":"m 849 -147 b 913 -135 874 -147 893 -142 l 913 -232 b 815 -246 885 -240 849 -246 b 679 -139 725 -246 679 -204 b 782 0 679 -74 733 -21 l 743 0 l 663 235 l 257 235 l 176 0 l 8 0 l 374 993 l 547 993 l 911 0 l 883 0 b 800 -108 831 -42 800 -78 b 849 -147 800 -133 821 -147 m 618 372 l 463 842 l 460 842 l 303 372 "},"Å":{"ha":921,"x_min":0,"x_max":0,"o":"m 461 1088 b 333 1214 392 1088 333 1136 b 461 1342 333 1289 392 1342 b 589 1214 531 1342 589 1289 b 461 1088 589 1136 531 1088 m 461 1149 b 524 1214 494 1149 524 1174 b 461 1279 524 1254 494 1279 b 399 1214 428 1279 399 1254 b 461 1149 399 1174 428 1149 m 257 235 l 176 0 l 8 0 l 374 993 l 547 993 l 911 0 l 743 0 l 663 235 m 618 372 l 463 842 l 460 842 l 303 372 "},"Ã":{"ha":921,"x_min":0,"x_max":0,"o":"m 256 1136 b 364 1285 256 1242 304 1285 b 536 1233 431 1285 494 1233 b 572 1282 568 1233 572 1261 l 667 1282 b 557 1133 667 1174 618 1133 b 385 1185 490 1133 428 1185 b 349 1136 353 1185 349 1156 l 256 1136 m 257 235 l 176 0 l 8 0 l 374 993 l 547 993 l 911 0 l 743 0 l 663 235 m 618 372 l 463 842 l 460 842 l 303 372 "},"Æ":{"ha":1381,"x_min":0,"x_max":0,"o":"m 1331 140 l 1331 0 l 599 0 l 599 235 l 261 235 l 181 -1 l 13 -1 l 382 993 l 1317 993 l 1317 853 l 764 853 l 764 583 l 1249 583 l 1249 442 l 764 442 l 764 140 m 599 371 l 599 850 l 468 850 l 307 371 "},"B":{"ha":907,"x_min":0,"x_max":0,"o":"m 833 743 b 679 536 833 621 761 564 l 679 533 b 872 290 783 515 872 439 b 535 0 872 99 740 0 l 85 0 l 85 993 l 511 993 b 833 743 715 993 833 903 m 506 582 b 668 717 624 582 668 629 b 515 853 668 804 614 853 l 250 853 l 250 582 m 250 140 l 522 140 b 707 300 664 140 707 207 b 540 458 707 401 644 458 l 250 458 "},"C":{"ha":979,"x_min":0,"x_max":0,"o":"m 776 651 b 510 872 758 751 693 872 b 211 497 296 872 211 693 b 510 121 211 300 296 121 b 776 363 694 121 765 242 l 942 363 b 514 -21 919 139 767 -21 b 47 497 228 -21 47 197 b 514 1014 47 796 228 1014 b 942 651 765 1014 918 854 l 776 651 "},"Ć":{"ha":979,"x_min":0,"x_max":0,"o":"m 685 1288 l 569 1106 l 456 1106 l 515 1288 m 776 651 b 510 872 758 751 693 872 b 211 497 296 872 211 693 b 510 121 211 300 296 121 b 776 363 694 121 765 242 l 942 363 b 514 -21 919 139 767 -21 b 47 497 228 -21 47 197 b 514 1014 47 796 228 1014 b 942 651 765 1014 918 854 l 776 651 "},"Č":{"ha":979,"x_min":0,"x_max":0,"o":"m 442 1288 l 514 1178 l 517 1178 l 590 1288 l 728 1288 l 593 1106 l 439 1106 l 304 1288 m 776 651 b 510 872 758 751 693 872 b 211 497 296 872 211 693 b 510 121 211 300 296 121 b 776 363 694 121 765 242 l 942 363 b 514 -21 919 139 767 -21 b 47 497 228 -21 47 197 b 514 1014 47 796 228 1014 b 942 651 765 1014 918 854 l 776 651 "},"Ç":{"ha":979,"x_min":0,"x_max":0,"o":"m 510 121 b 776 363 694 121 765 242 l 942 363 b 547 -19 921 149 781 -7 l 499 -79 l 499 -82 b 639 -168 560 -74 639 -96 b 483 -274 639 -235 564 -274 b 332 -233 424 -274 367 -257 l 365 -193 b 467 -214 396 -206 426 -214 b 539 -167 506 -214 539 -196 b 474 -129 539 -140 517 -129 b 421 -139 458 -129 435 -133 l 401 -110 l 474 -19 b 47 497 211 0 47 211 b 514 1014 47 796 228 1014 b 942 651 765 1014 918 854 l 776 651 b 510 872 758 751 693 872 b 211 497 296 872 211 693 b 510 121 211 300 296 121 "},"Ċ":{"ha":979,"x_min":0,"x_max":0,"o":"m 433 1208 b 515 1290 433 1253 463 1290 b 596 1208 567 1290 596 1253 b 515 1129 596 1167 567 1129 b 433 1208 463 1129 433 1167 m 776 651 b 510 872 758 751 693 872 b 211 497 296 872 211 693 b 510 121 211 300 296 121 b 776 363 694 121 765 242 l 942 363 b 514 -21 919 139 767 -21 b 47 497 228 -21 47 197 b 514 1014 47 796 228 1014 b 942 651 765 1014 918 854 l 776 651 "},"D":{"ha":960,"x_min":0,"x_max":0,"o":"m 85 993 l 471 993 b 913 496 744 993 913 815 b 475 0 913 176 750 0 l 85 0 m 250 140 l 463 140 b 747 496 685 140 747 306 b 463 853 747 686 685 853 l 250 853 "},"Ð":{"ha":971,"x_min":0,"x_max":0,"o":"m 482 993 b 924 496 756 993 924 815 b 486 0 924 176 761 0 l 96 0 l 96 461 l 6 461 l 6 567 l 96 567 l 96 993 l 482 993 m 474 140 b 758 496 696 140 758 306 b 474 853 758 686 696 853 l 261 853 l 261 567 l 540 567 l 540 461 l 261 461 l 261 140 l 474 140 "},"Ď":{"ha":960,"x_min":0,"x_max":0,"o":"m 318 1288 l 390 1178 l 393 1178 l 467 1288 l 604 1288 l 469 1106 l 315 1106 l 181 1288 m 85 993 l 471 993 b 913 496 744 993 913 815 b 475 0 913 176 750 0 l 85 0 m 250 140 l 463 140 b 747 496 685 140 747 306 b 463 853 747 686 685 853 l 250 853 "},"Đ":{"ha":971,"x_min":0,"x_max":0,"o":"m 482 993 b 924 496 756 993 924 815 b 486 0 924 176 761 0 l 96 0 l 96 461 l 6 461 l 6 567 l 96 567 l 96 993 l 482 993 m 474 140 b 758 496 696 140 758 306 b 474 853 758 686 696 853 l 261 853 l 261 567 l 540 567 l 540 461 l 261 461 l 261 140 l 474 140 "},"E":{"ha":867,"x_min":0,"x_max":0,"o":"m 735 583 l 735 442 l 250 442 l 250 140 l 817 140 l 817 0 l 85 0 l 85 993 l 803 993 l 803 853 l 250 853 l 250 583 "},"É":{"ha":867,"x_min":0,"x_max":0,"o":"m 621 1288 l 506 1106 l 392 1106 l 451 1288 m 735 583 l 735 442 l 250 442 l 250 140 l 817 140 l 817 0 l 85 0 l 85 993 l 803 993 l 803 853 l 250 853 l 250 583 "},"Ě":{"ha":867,"x_min":0,"x_max":0,"o":"m 378 1288 l 450 1178 l 453 1178 l 526 1288 l 664 1288 l 529 1106 l 375 1106 l 240 1288 m 735 583 l 735 442 l 250 442 l 250 140 l 817 140 l 817 0 l 85 0 l 85 993 l 803 993 l 803 853 l 250 853 l 250 583 "},"Ê":{"ha":867,"x_min":0,"x_max":0,"o":"m 375 1289 l 529 1289 l 664 1107 l 526 1107 l 453 1217 l 450 1217 l 378 1107 l 240 1107 m 735 583 l 735 442 l 250 442 l 250 140 l 817 140 l 817 0 l 85 0 l 85 993 l 803 993 l 803 853 l 250 853 l 250 583 "},"Ë":{"ha":867,"x_min":0,"x_max":0,"o":"m 251 1208 b 333 1290 251 1253 281 1290 b 414 1208 385 1290 414 1253 b 333 1129 414 1167 385 1129 b 251 1208 281 1129 251 1167 m 489 1208 b 571 1290 489 1253 518 1290 b 651 1208 622 1290 651 1253 b 571 1129 651 1167 622 1129 b 489 1208 518 1129 489 1167 m 735 583 l 735 442 l 250 442 l 250 140 l 817 140 l 817 0 l 85 0 l 85 993 l 803 993 l 803 853 l 250 853 l 250 583 "},"Ė":{"ha":867,"x_min":0,"x_max":0,"o":"m 369 1208 b 451 1290 369 1253 399 1290 b 532 1208 503 1290 532 1253 b 451 1129 532 1167 503 1129 b 369 1208 399 1129 369 1167 m 735 583 l 735 442 l 250 442 l 250 140 l 817 140 l 817 0 l 85 0 l 85 993 l 803 993 l 803 853 l 250 853 l 250 583 "},"È":{"ha":867,"x_min":0,"x_max":0,"o":"m 510 1106 l 396 1106 l 281 1288 l 450 1288 m 735 583 l 735 442 l 250 442 l 250 140 l 817 140 l 817 0 l 85 0 l 85 993 l 803 993 l 803 853 l 250 853 l 250 583 "},"Ē":{"ha":867,"x_min":0,"x_max":0,"o":"m 638 1256 l 638 1144 l 267 1144 l 267 1256 m 735 583 l 735 442 l 250 442 l 250 140 l 817 140 l 817 0 l 85 0 l 85 993 l 803 993 l 803 853 l 250 853 l 250 583 "},"Ę":{"ha":867,"x_min":0,"x_max":0,"o":"m 771 -147 b 835 -135 796 -147 815 -142 l 835 -232 b 738 -246 807 -240 771 -246 b 601 -139 647 -246 601 -204 b 704 0 601 -74 656 -21 l 85 0 l 85 993 l 803 993 l 803 853 l 250 853 l 250 583 l 735 583 l 735 442 l 250 442 l 250 140 l 817 140 l 817 0 l 806 0 b 722 -108 753 -42 722 -78 b 771 -147 722 -133 743 -147 "},"F":{"ha":814,"x_min":0,"x_max":0,"o":"m 679 564 l 679 422 l 250 422 l 250 0 l 85 0 l 85 993 l 779 993 l 779 853 l 250 853 l 250 564 "},"G":{"ha":1028,"x_min":0,"x_max":0,"o":"m 776 683 b 513 872 751 801 660 872 b 213 497 300 872 213 683 b 507 121 213 310 281 121 b 790 388 664 121 789 229 l 510 388 l 510 521 l 958 521 l 958 0 l 844 0 l 808 136 l 806 136 b 496 -21 739 36 646 -21 b 47 497 208 -21 47 197 b 514 1014 47 796 228 1014 b 942 683 772 1014 911 874 l 776 683 "},"Ğ":{"ha":1028,"x_min":0,"x_max":0,"o":"m 510 1100 b 318 1288 401 1100 322 1164 l 415 1288 b 510 1200 419 1229 450 1200 b 603 1288 569 1200 599 1229 l 700 1288 b 510 1100 694 1168 619 1100 m 776 683 b 513 872 751 801 660 872 b 213 497 300 872 213 683 b 507 121 213 310 281 121 b 790 388 664 121 789 229 l 510 388 l 510 521 l 958 521 l 958 0 l 844 0 l 808 136 l 806 136 b 496 -21 739 36 646 -21 b 47 497 208 -21 47 197 b 514 1014 47 796 228 1014 b 942 683 772 1014 911 874 l 776 683 "},"Ģ":{"ha":1028,"x_min":0,"x_max":0,"o":"m 776 683 b 513 872 751 801 660 872 b 213 497 300 872 213 683 b 507 121 213 310 281 121 b 790 388 664 121 789 229 l 510 388 l 510 521 l 958 521 l 958 0 l 844 0 l 808 136 l 806 136 b 496 -21 739 36 646 -21 b 47 497 208 -21 47 197 b 514 1014 47 796 228 1014 b 942 683 772 1014 911 874 l 776 683 m 526 -228 b 438 -158 478 -242 438 -215 b 517 -76 438 -111 474 -76 b 604 -196 575 -76 604 -128 b 450 -365 604 -267 565 -349 l 450 -307 b 526 -228 497 -299 526 -275 "},"Ġ":{"ha":1028,"x_min":0,"x_max":0,"o":"m 428 1208 b 510 1290 428 1253 457 1290 b 590 1208 561 1290 590 1253 b 510 1129 590 1167 561 1129 b 428 1208 457 1129 428 1167 m 776 683 b 513 872 751 801 660 872 b 213 497 300 872 213 683 b 507 121 213 310 281 121 b 790 388 664 121 789 229 l 510 388 l 510 521 l 958 521 l 958 0 l 844 0 l 808 136 l 806 136 b 496 -21 739 36 646 -21 b 47 497 208 -21 47 197 b 514 1014 47 796 228 1014 b 942 683 772 1014 911 874 l 776 683 "},"H":{"ha":969,"x_min":0,"x_max":0,"o":"m 250 993 l 250 582 l 719 582 l 719 993 l 885 993 l 885 0 l 719 0 l 719 440 l 250 440 l 250 0 l 85 0 l 85 993 "},"Ħ":{"ha":975,"x_min":0,"x_max":0,"o":"m 975 739 l 885 739 l 885 0 l 719 0 l 719 440 l 250 440 l 250 0 l 85 0 l 85 739 l -6 739 l -6 846 l 85 846 l 85 993 l 250 993 l 250 846 l 719 846 l 719 993 l 885 993 l 885 846 l 975 846 m 719 739 l 250 739 l 250 582 l 719 582 "},"I":{"ha":339,"x_min":0,"x_max":0,"o":"m 253 993 l 253 0 l 88 0 l 88 993 "},"Í":{"ha":339,"x_min":0,"x_max":0,"o":"m 339 1288 l 224 1106 l 110 1106 l 169 1288 m 253 993 l 253 0 l 88 0 l 88 993 "},"Î":{"ha":339,"x_min":0,"x_max":0,"o":"m 93 1289 l 247 1289 l 382 1107 l 244 1107 l 171 1217 l 168 1217 l 96 1107 l -42 1107 m 253 993 l 253 0 l 88 0 l 88 993 "},"Ï":{"ha":339,"x_min":0,"x_max":0,"o":"m -31 1208 b 51 1290 -31 1253 -1 1290 b 132 1208 103 1290 132 1253 b 51 1129 132 1167 103 1129 b -31 1208 -1 1129 -31 1167 m 207 1208 b 289 1290 207 1253 236 1290 b 369 1208 340 1290 369 1253 b 289 1129 369 1167 340 1129 b 207 1208 236 1129 207 1167 m 253 993 l 253 0 l 88 0 l 88 993 "},"İ":{"ha":339,"x_min":0,"x_max":0,"o":"m 88 1208 b 169 1290 88 1253 117 1290 b 250 1208 221 1290 250 1253 b 169 1129 250 1167 221 1129 b 88 1208 117 1129 88 1167 m 253 993 l 253 0 l 88 0 l 88 993 "},"Ì":{"ha":339,"x_min":0,"x_max":0,"o":"m 228 1106 l 114 1106 l -1 1288 l 168 1288 m 253 993 l 253 0 l 88 0 l 88 993 "},"Ī":{"ha":339,"x_min":0,"x_max":0,"o":"m 356 1256 l 356 1144 l -15 1144 l -15 1256 m 253 993 l 253 0 l 88 0 l 88 993 "},"Į":{"ha":339,"x_min":0,"x_max":0,"o":"m 218 -147 b 282 -135 243 -147 263 -142 l 282 -232 b 185 -246 254 -240 218 -246 b 49 -139 94 -246 49 -204 b 151 0 49 -74 103 -21 l 88 0 l 88 993 l 253 993 l 253 0 b 169 -108 200 -42 169 -78 b 218 -147 169 -133 190 -147 "},"J":{"ha":711,"x_min":0,"x_max":0,"o":"m 638 311 b 332 -21 638 140 571 -21 b 26 311 93 -21 26 140 l 26 357 l 183 357 l 183 311 b 328 121 183 200 203 121 b 474 311 451 121 474 200 l 474 993 l 638 993 l 638 311 "},"K":{"ha":918,"x_min":0,"x_max":0,"o":"m 250 993 l 250 503 l 700 993 l 897 993 l 511 572 l 921 0 l 728 0 l 403 457 l 250 293 l 250 0 l 85 0 l 85 993 "},"Ķ":{"ha":918,"x_min":0,"x_max":0,"o":"m 250 993 l 250 503 l 700 993 l 897 993 l 511 572 l 921 0 l 728 0 l 403 457 l 250 293 l 250 0 l 85 0 l 85 993 m 500 -228 b 411 -158 451 -242 411 -215 b 490 -76 411 -111 447 -76 b 578 -196 549 -76 578 -128 b 424 -365 578 -267 539 -349 l 424 -307 b 500 -228 471 -299 500 -275 "},"L":{"ha":775,"x_min":0,"x_max":0,"o":"m 250 993 l 250 140 l 746 140 l 746 0 l 85 0 l 85 993 "},"Ĺ":{"ha":775,"x_min":0,"x_max":0,"o":"m 339 1288 l 224 1106 l 110 1106 l 169 1288 m 250 993 l 250 140 l 746 140 l 746 0 l 85 0 l 85 993 "},"Ľ":{"ha":775,"x_min":0,"x_max":0,"o":"m 517 840 b 414 917 456 826 414 864 b 499 1000 414 964 446 1000 b 589 881 560 1000 589 949 b 425 710 589 808 543 722 l 425 764 b 517 840 469 771 517 803 m 250 993 l 250 140 l 746 140 l 746 0 l 85 0 l 85 993 "},"Ļ":{"ha":775,"x_min":0,"x_max":0,"o":"m 250 993 l 250 140 l 746 140 l 746 0 l 85 0 l 85 993 m 421 -228 b 332 -158 372 -242 332 -215 b 411 -76 332 -111 368 -76 b 499 -196 469 -76 499 -128 b 344 -365 499 -267 460 -349 l 344 -307 b 421 -228 392 -299 421 -275 "},"Ł":{"ha":772,"x_min":0,"x_max":0,"o":"m 744 140 l 744 0 l 83 0 l 83 325 l -10 257 l -10 381 l 83 449 l 83 993 l 249 993 l 249 571 l 489 747 l 489 622 l 249 446 l 249 140 "},"M":{"ha":1154,"x_min":0,"x_max":0,"o":"m 85 993 l 299 993 l 576 229 l 579 229 l 856 993 l 1069 993 l 1069 0 l 908 0 l 908 753 l 906 753 l 643 0 l 511 0 l 249 753 l 246 753 l 246 0 l 85 0 "},"N":{"ha":969,"x_min":0,"x_max":0,"o":"m 85 993 l 269 993 l 717 247 l 719 247 l 719 993 l 885 993 l 885 0 l 701 0 l 253 743 l 250 743 l 250 0 l 85 0 "},"Ń":{"ha":969,"x_min":0,"x_max":0,"o":"m 656 1288 l 540 1106 l 426 1106 l 486 1288 m 85 993 l 269 993 l 717 247 l 719 247 l 719 993 l 885 993 l 885 0 l 701 0 l 253 743 l 250 743 l 250 0 l 85 0 "},"Ň":{"ha":969,"x_min":0,"x_max":0,"o":"m 413 1288 l 485 1178 l 488 1178 l 561 1288 l 699 1288 l 564 1106 l 410 1106 l 275 1288 m 85 993 l 269 993 l 717 247 l 719 247 l 719 993 l 885 993 l 885 0 l 701 0 l 253 743 l 250 743 l 250 0 l 85 0 "},"Ņ":{"ha":969,"x_min":0,"x_max":0,"o":"m 85 993 l 269 993 l 717 247 l 719 247 l 719 993 l 885 993 l 885 0 l 701 0 l 253 743 l 250 743 l 250 0 l 85 0 m 492 -228 b 403 -158 443 -242 403 -215 b 482 -76 403 -111 439 -76 b 569 -196 540 -76 569 -128 b 415 -365 569 -267 531 -349 l 415 -307 b 492 -228 463 -299 492 -275 "},"Ŋ":{"ha":969,"x_min":0,"x_max":0,"o":"m 85 993 l 269 993 l 717 247 l 719 247 l 719 993 l 885 993 l 885 21 b 629 -247 885 -161 789 -247 b 533 -236 592 -247 560 -243 l 533 -118 b 713 -18 642 -126 704 -103 l 253 743 l 250 743 l 250 0 l 85 0 "},"Ñ":{"ha":969,"x_min":0,"x_max":0,"o":"m 281 1136 b 389 1285 281 1242 329 1285 b 561 1233 456 1285 519 1233 b 597 1282 593 1233 597 1261 l 692 1282 b 582 1133 692 1174 643 1133 b 410 1185 515 1133 453 1185 b 374 1136 378 1185 374 1156 l 281 1136 m 85 993 l 269 993 l 717 247 l 719 247 l 719 993 l 885 993 l 885 0 l 701 0 l 253 743 l 250 743 l 250 0 l 85 0 "},"O":{"ha":1069,"x_min":0,"x_max":0,"o":"m 535 -21 b 47 497 235 -21 47 199 b 535 1014 47 796 235 1014 b 1022 497 833 1014 1022 796 b 535 -21 1022 199 833 -21 m 535 121 b 857 497 763 121 857 296 b 535 872 857 697 763 872 b 211 497 307 872 211 697 b 535 121 211 296 307 121 "},"Ó":{"ha":1069,"x_min":0,"x_max":0,"o":"m 704 1288 l 589 1106 l 475 1106 l 535 1288 m 535 -21 b 47 497 235 -21 47 199 b 535 1014 47 796 235 1014 b 1022 497 833 1014 1022 796 b 535 -21 1022 199 833 -21 m 535 121 b 857 497 763 121 857 296 b 535 872 857 697 763 872 b 211 497 307 872 211 697 b 535 121 211 296 307 121 "},"Ô":{"ha":1069,"x_min":0,"x_max":0,"o":"m 458 1289 l 613 1289 l 747 1107 l 610 1107 l 536 1217 l 533 1217 l 461 1107 l 324 1107 m 535 -21 b 47 497 235 -21 47 199 b 535 1014 47 796 235 1014 b 1022 497 833 1014 1022 796 b 535 -21 1022 199 833 -21 m 535 121 b 857 497 763 121 857 296 b 535 872 857 697 763 872 b 211 497 307 872 211 697 b 535 121 211 296 307 121 "},"Ö":{"ha":1069,"x_min":0,"x_max":0,"o":"m 335 1208 b 417 1290 335 1253 364 1290 b 497 1208 468 1290 497 1253 b 417 1129 497 1167 468 1129 b 335 1208 364 1129 335 1167 m 572 1208 b 654 1290 572 1253 601 1290 b 735 1208 706 1290 735 1253 b 654 1129 735 1167 706 1129 b 572 1208 601 1129 572 1167 m 535 -21 b 47 497 235 -21 47 199 b 535 1014 47 796 235 1014 b 1022 497 833 1014 1022 796 b 535 -21 1022 199 833 -21 m 535 121 b 857 497 763 121 857 296 b 535 872 857 697 763 872 b 211 497 307 872 211 697 b 535 121 211 296 307 121 "},"Ò":{"ha":1069,"x_min":0,"x_max":0,"o":"m 593 1106 l 479 1106 l 364 1288 l 533 1288 m 535 -21 b 47 497 235 -21 47 199 b 535 1014 47 796 235 1014 b 1022 497 833 1014 1022 796 b 535 -21 1022 199 833 -21 m 535 121 b 857 497 763 121 857 296 b 535 872 857 697 763 872 b 211 497 307 872 211 697 b 535 121 211 296 307 121 "},"Ő":{"ha":1069,"x_min":0,"x_max":0,"o":"m 582 1288 l 467 1106 l 353 1106 l 413 1288 m 814 1288 l 699 1106 l 585 1106 l 644 1288 m 535 -21 b 47 497 235 -21 47 199 b 535 1014 47 796 235 1014 b 1022 497 833 1014 1022 796 b 535 -21 1022 199 833 -21 m 535 121 b 857 497 763 121 857 296 b 535 872 857 697 763 872 b 211 497 307 872 211 697 b 535 121 211 296 307 121 "},"Ō":{"ha":1069,"x_min":0,"x_max":0,"o":"m 721 1256 l 721 1144 l 350 1144 l 350 1256 m 535 -21 b 47 497 235 -21 47 199 b 535 1014 47 796 235 1014 b 1022 497 833 1014 1022 796 b 535 -21 1022 199 833 -21 m 535 121 b 857 497 763 121 857 296 b 535 872 857 697 763 872 b 211 497 307 872 211 697 b 535 121 211 296 307 121 "},"Ø":{"ha":1072,"x_min":0,"x_max":0,"o":"m 921 833 b 1024 497 988 744 1024 629 b 536 -21 1024 199 835 -21 b 197 108 396 -21 281 26 l 96 6 l 44 57 l 150 163 b 49 497 85 251 49 367 b 536 1014 49 796 236 1014 b 872 888 675 1014 789 967 l 974 989 l 1026 939 m 213 497 b 263 275 213 415 228 339 l 765 781 b 536 872 714 838 639 872 b 213 497 308 872 213 697 m 858 497 b 808 719 858 579 843 657 l 304 215 b 536 121 357 157 433 121 b 858 497 764 121 858 296 "},"Õ":{"ha":1069,"x_min":0,"x_max":0,"o":"m 329 1136 b 438 1285 329 1242 378 1285 b 610 1233 504 1285 568 1233 b 646 1282 642 1233 646 1261 l 740 1282 b 631 1133 740 1174 692 1133 b 458 1185 564 1133 501 1185 b 422 1136 426 1185 422 1156 l 329 1136 m 535 -21 b 47 497 235 -21 47 199 b 535 1014 47 796 235 1014 b 1022 497 833 1014 1022 796 b 535 -21 1022 199 833 -21 m 535 121 b 857 497 763 121 857 296 b 535 872 857 697 763 872 b 211 497 307 872 211 697 b 535 121 211 296 307 121 "},"Œ":{"ha":1500,"x_min":0,"x_max":0,"o":"m 1450 140 l 1450 0 l 718 0 l 718 83 b 464 -21 656 17 569 -21 b 47 497 217 -21 47 199 b 464 1014 47 796 217 1014 b 718 910 569 1014 656 978 l 718 993 l 1436 993 l 1436 853 l 883 853 l 883 583 l 1368 583 l 1368 442 l 883 442 l 883 140 m 497 121 b 718 258 589 121 669 167 l 718 735 b 497 872 669 826 589 872 b 211 497 288 872 211 697 b 497 121 211 296 288 121 "},"P":{"ha":860,"x_min":0,"x_max":0,"o":"m 85 993 l 507 993 b 835 696 697 993 835 904 b 507 397 835 488 697 397 l 250 397 l 250 0 l 85 0 m 250 539 l 500 539 b 669 696 611 539 669 586 b 500 853 669 804 611 853 l 250 853 "},"Þ":{"ha":856,"x_min":0,"x_max":0,"o":"m 85 993 l 250 993 l 250 835 l 507 835 b 835 538 697 835 835 746 b 507 240 835 329 697 240 l 250 240 l 250 0 l 85 0 m 250 381 l 500 381 b 669 538 611 381 669 429 b 500 694 669 646 611 694 l 250 694 "},"Q":{"ha":1069,"x_min":0,"x_max":0,"o":"m 1022 497 b 910 149 1022 360 982 239 l 1021 38 l 924 -60 l 808 56 b 535 -21 733 7 640 -21 b 47 497 235 -21 47 199 b 535 1014 47 796 235 1014 b 1022 497 833 1014 1022 796 m 535 121 b 703 163 601 121 657 136 l 568 297 l 665 394 l 799 260 b 857 497 839 325 857 408 b 535 872 857 697 763 872 b 211 497 307 872 211 697 b 535 121 211 296 307 121 "},"R":{"ha":896,"x_min":0,"x_max":0,"o":"m 85 993 l 508 993 b 844 708 713 993 844 889 b 660 461 844 569 774 489 l 660 458 b 858 10 889 415 806 26 l 858 0 l 685 0 b 493 383 639 42 732 383 l 250 383 l 250 0 l 85 0 m 250 525 l 474 525 b 681 689 575 525 681 544 b 474 853 681 832 575 853 l 250 853 "},"Ŕ":{"ha":896,"x_min":0,"x_max":0,"o":"m 600 1288 l 485 1106 l 371 1106 l 431 1288 m 85 993 l 508 993 b 844 708 713 993 844 889 b 660 461 844 569 774 489 l 660 458 b 858 10 889 415 806 26 l 858 0 l 685 0 b 493 383 639 42 732 383 l 250 383 l 250 0 l 85 0 m 250 525 l 474 525 b 681 689 575 525 681 544 b 474 853 681 832 575 853 l 250 853 "},"Ř":{"ha":896,"x_min":0,"x_max":0,"o":"m 357 1288 l 429 1178 l 432 1178 l 506 1288 l 643 1288 l 508 1106 l 354 1106 l 219 1288 m 85 993 l 508 993 b 844 708 713 993 844 889 b 660 461 844 569 774 489 l 660 458 b 858 10 889 415 806 26 l 858 0 l 685 0 b 493 383 639 42 732 383 l 250 383 l 250 0 l 85 0 m 250 525 l 474 525 b 681 689 575 525 681 544 b 474 853 681 832 575 853 l 250 853 "},"Ŗ":{"ha":896,"x_min":0,"x_max":0,"o":"m 85 993 l 508 993 b 844 708 713 993 844 889 b 660 461 844 569 774 489 l 660 458 b 858 10 889 415 806 26 l 858 0 l 685 0 b 493 383 639 42 732 383 l 250 383 l 250 0 l 85 0 m 250 525 l 474 525 b 681 689 575 525 681 544 b 474 853 681 832 575 853 l 250 853 m 468 -228 b 379 -158 419 -242 379 -215 b 458 -76 379 -111 415 -76 b 546 -196 517 -76 546 -128 b 392 -365 546 -267 507 -349 l 392 -307 b 468 -228 439 -299 468 -275 "},"S":{"ha":879,"x_min":0,"x_max":0,"o":"m 461 592 b 835 269 674 538 835 492 b 465 -21 835 111 715 -21 b 28 331 222 -21 38 106 l 193 331 b 465 121 201 204 288 121 b 669 263 613 121 669 186 b 389 451 669 381 585 403 b 65 739 233 490 65 550 b 418 1014 65 915 201 1014 b 808 696 636 1014 794 900 l 643 696 b 418 872 628 811 556 872 b 229 754 300 872 229 828 b 461 592 229 646 322 626 "},"Ś":{"ha":879,"x_min":0,"x_max":0,"o":"m 596 1288 l 481 1106 l 367 1106 l 426 1288 m 461 592 b 835 269 674 538 835 492 b 465 -21 835 111 715 -21 b 28 331 222 -21 38 106 l 193 331 b 465 121 201 204 288 121 b 669 263 613 121 669 186 b 389 451 669 381 585 403 b 65 739 233 490 65 550 b 418 1014 65 915 201 1014 b 808 696 636 1014 794 900 l 643 696 b 418 872 628 811 556 872 b 229 754 300 872 229 828 b 461 592 229 646 322 626 "},"Š":{"ha":879,"x_min":0,"x_max":0,"o":"m 353 1288 l 425 1178 l 428 1178 l 501 1288 l 639 1288 l 504 1106 l 350 1106 l 215 1288 m 461 592 b 835 269 674 538 835 492 b 465 -21 835 111 715 -21 b 28 331 222 -21 38 106 l 193 331 b 465 121 201 204 288 121 b 669 263 613 121 669 186 b 389 451 669 381 585 403 b 65 739 233 490 65 550 b 418 1014 65 915 201 1014 b 808 696 636 1014 794 900 l 643 696 b 418 872 628 811 556 872 b 229 754 300 872 229 828 b 461 592 229 646 322 626 "},"Ş":{"ha":879,"x_min":0,"x_max":0,"o":"m 461 -79 l 461 -82 b 601 -168 522 -74 601 -96 b 446 -274 601 -235 526 -274 b 294 -233 386 -274 329 -257 l 328 -193 b 429 -214 358 -206 389 -214 b 501 -167 468 -214 501 -196 b 436 -129 501 -140 479 -129 b 383 -139 421 -129 397 -133 l 364 -110 l 436 -21 b 28 331 207 -10 38 115 l 193 331 b 465 121 201 204 288 121 b 669 263 613 121 669 186 b 389 451 669 381 585 403 b 65 739 233 490 65 550 b 418 1014 65 915 201 1014 b 808 696 636 1014 794 900 l 643 696 b 418 872 628 811 556 872 b 229 754 300 872 229 828 b 461 592 229 646 322 626 b 835 269 674 538 835 492 b 510 -19 835 121 729 -4 "},"Ș":{"ha":879,"x_min":0,"x_max":0,"o":"m 461 592 b 835 269 674 538 835 492 b 465 -21 835 111 715 -21 b 28 331 222 -21 38 106 l 193 331 b 465 121 201 204 288 121 b 669 263 613 121 669 186 b 389 451 669 381 585 403 b 65 739 233 490 65 550 b 418 1014 65 915 201 1014 b 808 696 636 1014 794 900 l 643 696 b 418 872 628 811 556 872 b 229 754 300 872 229 828 b 461 592 229 646 322 626 m 483 -228 b 394 -158 435 -242 394 -215 b 474 -76 394 -111 431 -76 b 561 -196 532 -76 561 -128 b 407 -365 561 -267 522 -349 l 407 -307 b 483 -228 454 -299 483 -275 "},"T":{"ha":856,"x_min":0,"x_max":0,"o":"m 346 853 l 28 853 l 28 993 l 828 993 l 828 853 l 511 853 l 511 0 l 346 0 "},"Ŧ":{"ha":856,"x_min":0,"x_max":0,"o":"m 511 853 l 511 567 l 721 567 l 721 461 l 511 461 l 511 0 l 346 0 l 346 461 l 136 461 l 136 567 l 346 567 l 346 853 l 28 853 l 28 993 l 828 993 l 828 853 "},"Ť":{"ha":856,"x_min":0,"x_max":0,"o":"m 354 1288 l 426 1178 l 429 1178 l 503 1288 l 640 1288 l 506 1106 l 351 1106 l 217 1288 m 346 853 l 28 853 l 28 993 l 828 993 l 828 853 l 511 853 l 511 0 l 346 0 "},"Ţ":{"ha":856,"x_min":0,"x_max":0,"o":"m 411 -68 l 411 -71 b 551 -157 472 -62 551 -85 b 396 -262 551 -224 476 -262 b 244 -222 336 -262 279 -246 l 278 -182 b 379 -203 308 -194 339 -203 b 451 -156 418 -203 451 -185 b 386 -118 451 -129 429 -118 b 333 -128 371 -118 347 -122 l 314 -99 l 393 0 l 346 0 l 346 853 l 28 853 l 28 993 l 828 993 l 828 853 l 511 853 l 511 0 l 467 0 "},"Ț":{"ha":856,"x_min":0,"x_max":0,"o":"m 346 853 l 28 853 l 28 993 l 828 993 l 828 853 l 511 853 l 511 0 l 346 0 m 433 -217 b 344 -147 385 -231 344 -204 b 424 -65 344 -100 381 -65 b 511 -185 482 -65 511 -117 b 357 -354 511 -256 472 -337 l 357 -296 b 433 -217 404 -287 433 -264 "},"U":{"ha":926,"x_min":0,"x_max":0,"o":"m 854 339 b 463 -21 854 122 739 -21 b 71 339 186 -21 71 122 l 71 993 l 236 993 l 236 339 b 463 121 236 189 311 121 b 690 339 615 121 690 189 l 690 993 l 854 993 l 854 339 "},"Ú":{"ha":926,"x_min":0,"x_max":0,"o":"m 632 1288 l 517 1106 l 403 1106 l 463 1288 m 854 339 b 463 -21 854 122 739 -21 b 71 339 186 -21 71 122 l 71 993 l 236 993 l 236 339 b 463 121 236 189 311 121 b 690 339 615 121 690 189 l 690 993 l 854 993 l 854 339 "},"Û":{"ha":926,"x_min":0,"x_max":0,"o":"m 386 1289 l 540 1289 l 675 1107 l 538 1107 l 464 1217 l 461 1217 l 389 1107 l 251 1107 m 854 339 b 463 -21 854 122 739 -21 b 71 339 186 -21 71 122 l 71 993 l 236 993 l 236 339 b 463 121 236 189 311 121 b 690 339 615 121 690 189 l 690 993 l 854 993 l 854 339 "},"Ü":{"ha":926,"x_min":0,"x_max":0,"o":"m 263 1208 b 344 1290 263 1253 292 1290 b 425 1208 396 1290 425 1253 b 344 1129 425 1167 396 1129 b 263 1208 292 1129 263 1167 m 500 1208 b 582 1290 500 1253 529 1290 b 663 1208 633 1290 663 1253 b 582 1129 663 1167 633 1129 b 500 1208 529 1129 500 1167 m 854 339 b 463 -21 854 122 739 -21 b 71 339 186 -21 71 122 l 71 993 l 236 993 l 236 339 b 463 121 236 189 311 121 b 690 339 615 121 690 189 l 690 993 l 854 993 l 854 339 "},"Ù":{"ha":926,"x_min":0,"x_max":0,"o":"m 521 1106 l 407 1106 l 292 1288 l 461 1288 m 854 339 b 463 -21 854 122 739 -21 b 71 339 186 -21 71 122 l 71 993 l 236 993 l 236 339 b 463 121 236 189 311 121 b 690 339 615 121 690 189 l 690 993 l 854 993 l 854 339 "},"Ű":{"ha":926,"x_min":0,"x_max":0,"o":"m 510 1288 l 394 1106 l 281 1106 l 340 1288 m 742 1288 l 626 1106 l 513 1106 l 572 1288 m 854 339 b 463 -21 854 122 739 -21 b 71 339 186 -21 71 122 l 71 993 l 236 993 l 236 339 b 463 121 236 189 311 121 b 690 339 615 121 690 189 l 690 993 l 854 993 l 854 339 "},"Ū":{"ha":926,"x_min":0,"x_max":0,"o":"m 649 1256 l 649 1144 l 278 1144 l 278 1256 m 854 339 b 463 -21 854 122 739 -21 b 71 339 186 -21 71 122 l 71 993 l 236 993 l 236 339 b 463 121 236 189 311 121 b 690 339 615 121 690 189 l 690 993 l 854 993 l 854 339 "},"Ų":{"ha":926,"x_min":0,"x_max":0,"o":"m 854 993 l 854 339 b 625 0 854 171 785 47 b 542 -108 572 -42 542 -78 b 590 -147 542 -133 563 -147 b 654 -135 615 -147 635 -142 l 654 -232 b 557 -246 626 -240 590 -246 b 421 -139 467 -246 421 -204 b 489 -21 421 -89 451 -47 l 463 -21 b 71 339 186 -21 71 122 l 71 993 l 236 993 l 236 339 b 463 121 236 189 311 121 b 690 339 615 121 690 189 l 690 993 "},"Ů":{"ha":926,"x_min":0,"x_max":0,"o":"m 463 1088 b 335 1214 393 1088 335 1136 b 463 1342 335 1289 393 1342 b 590 1214 532 1342 590 1289 b 463 1088 590 1136 532 1088 m 463 1149 b 525 1214 496 1149 525 1174 b 463 1279 525 1254 496 1279 b 400 1214 429 1279 400 1254 b 463 1149 400 1174 429 1149 m 854 339 b 463 -21 854 122 739 -21 b 71 339 186 -21 71 122 l 71 993 l 236 993 l 236 339 b 463 121 236 189 311 121 b 690 339 615 121 690 189 l 690 993 l 854 993 l 854 339 "},"V":{"ha":874,"x_min":0,"x_max":0,"o":"m 183 993 l 436 181 l 438 181 l 690 993 l 865 993 l 526 0 l 347 0 l 8 993 "},"W":{"ha":1281,"x_min":0,"x_max":0,"o":"m 183 993 l 353 224 l 356 224 l 556 993 l 725 993 l 926 224 l 929 224 l 1099 993 l 1268 993 l 1019 0 l 846 0 l 642 778 l 639 778 l 436 0 l 261 0 l 14 993 "},"Ẃ":{"ha":1281,"x_min":0,"x_max":0,"o":"m 810 1288 l 694 1106 l 581 1106 l 640 1288 m 183 993 l 353 224 l 356 224 l 556 993 l 725 993 l 926 224 l 929 224 l 1099 993 l 1268 993 l 1019 0 l 846 0 l 642 778 l 639 778 l 436 0 l 261 0 l 14 993 "},"Ŵ":{"ha":1281,"x_min":0,"x_max":0,"o":"m 564 1289 l 718 1289 l 853 1107 l 715 1107 l 642 1217 l 639 1217 l 567 1107 l 429 1107 m 183 993 l 353 224 l 356 224 l 556 993 l 725 993 l 926 224 l 929 224 l 1099 993 l 1268 993 l 1019 0 l 846 0 l 642 778 l 639 778 l 436 0 l 261 0 l 14 993 "},"Ẅ":{"ha":1281,"x_min":0,"x_max":0,"o":"m 440 1208 b 522 1290 440 1253 469 1290 b 603 1208 574 1290 603 1253 b 522 1129 603 1167 574 1129 b 440 1208 469 1129 440 1167 m 678 1208 b 760 1290 678 1253 707 1290 b 840 1208 811 1290 840 1253 b 760 1129 840 1167 811 1129 b 678 1208 707 1129 678 1167 m 183 993 l 353 224 l 356 224 l 556 993 l 725 993 l 926 224 l 929 224 l 1099 993 l 1268 993 l 1019 0 l 846 0 l 642 778 l 639 778 l 436 0 l 261 0 l 14 993 "},"Ẁ":{"ha":1281,"x_min":0,"x_max":0,"o":"m 699 1106 l 585 1106 l 469 1288 l 639 1288 m 183 993 l 353 224 l 356 224 l 556 993 l 725 993 l 926 224 l 929 224 l 1099 993 l 1268 993 l 1019 0 l 846 0 l 642 778 l 639 778 l 436 0 l 261 0 l 14 993 "},"X":{"ha":889,"x_min":0,"x_max":0,"o":"m 39 993 l 218 993 l 443 626 l 444 626 l 671 993 l 850 993 l 539 510 l 875 0 l 682 0 l 444 388 l 443 388 l 207 0 l 14 0 l 350 507 "},"Y":{"ha":890,"x_min":0,"x_max":0,"o":"m 186 993 l 443 532 l 446 532 l 704 993 l 881 993 l 528 394 l 528 0 l 363 0 l 363 394 l 10 993 "},"Ý":{"ha":890,"x_min":0,"x_max":0,"o":"m 615 1288 l 500 1106 l 386 1106 l 446 1288 m 186 993 l 443 532 l 446 532 l 704 993 l 881 993 l 528 394 l 528 0 l 363 0 l 363 394 l 10 993 "},"Ŷ":{"ha":890,"x_min":0,"x_max":0,"o":"m 369 1289 l 524 1289 l 658 1107 l 521 1107 l 447 1217 l 444 1217 l 372 1107 l 235 1107 m 186 993 l 443 532 l 446 532 l 704 993 l 881 993 l 528 394 l 528 0 l 363 0 l 363 394 l 10 993 "},"Ÿ":{"ha":890,"x_min":0,"x_max":0,"o":"m 246 1208 b 328 1290 246 1253 275 1290 b 408 1208 379 1290 408 1253 b 328 1129 408 1167 379 1129 b 246 1208 275 1129 246 1167 m 483 1208 b 565 1290 483 1253 513 1290 b 646 1208 617 1290 646 1253 b 565 1129 646 1167 617 1129 b 483 1208 513 1129 483 1167 m 186 993 l 443 532 l 446 532 l 704 993 l 881 993 l 528 394 l 528 0 l 363 0 l 363 394 l 10 993 "},"Ỳ":{"ha":890,"x_min":0,"x_max":0,"o":"m 504 1106 l 390 1106 l 275 1288 l 444 1288 m 186 993 l 443 532 l 446 532 l 704 993 l 881 993 l 528 394 l 528 0 l 363 0 l 363 394 l 10 993 "},"Z":{"ha":858,"x_min":0,"x_max":0,"o":"m 799 993 l 799 853 l 242 143 l 242 140 l 813 140 l 813 0 l 40 0 l 40 140 l 597 850 l 597 853 l 68 853 l 68 993 "},"Ź":{"ha":858,"x_min":0,"x_max":0,"o":"m 600 1288 l 485 1106 l 371 1106 l 431 1288 m 799 993 l 799 853 l 242 143 l 242 140 l 813 140 l 813 0 l 40 0 l 40 140 l 597 850 l 597 853 l 68 853 l 68 993 "},"Ž":{"ha":858,"x_min":0,"x_max":0,"o":"m 357 1288 l 429 1178 l 432 1178 l 506 1288 l 643 1288 l 508 1106 l 354 1106 l 219 1288 m 799 993 l 799 853 l 242 143 l 242 140 l 813 140 l 813 0 l 40 0 l 40 140 l 597 850 l 597 853 l 68 853 l 68 993 "},"Ż":{"ha":858,"x_min":0,"x_max":0,"o":"m 349 1208 b 431 1290 349 1253 378 1290 b 511 1208 482 1290 511 1253 b 431 1129 511 1167 482 1129 b 349 1208 378 1129 349 1167 m 799 993 l 799 853 l 242 143 l 242 140 l 813 140 l 813 0 l 40 0 l 40 140 l 597 850 l 597 853 l 68 853 l 68 993 "},"a":{"ha":728,"x_min":0,"x_max":0,"o":"m 499 524 b 371 614 499 575 468 614 b 204 486 254 614 211 578 l 63 486 b 371 729 69 622 157 729 b 644 481 528 729 644 669 l 644 143 b 713 72 644 93 656 67 l 713 3 b 628 -12 679 -10 656 -12 b 500 85 550 -12 514 15 l 497 85 b 263 -21 453 22 372 -21 b 29 182 118 -21 29 63 b 322 421 29 338 144 386 b 499 524 432 442 499 456 m 294 94 b 499 269 415 94 499 154 l 499 376 b 350 329 475 360 418 343 b 176 196 229 303 176 268 b 294 94 176 131 215 94 "},"á":{"ha":728,"x_min":0,"x_max":0,"o":"m 540 1004 l 425 822 l 311 822 l 371 1004 m 499 524 b 371 614 499 575 468 614 b 204 486 254 614 211 578 l 63 486 b 371 729 69 622 157 729 b 644 481 528 729 644 669 l 644 143 b 713 72 644 93 656 67 l 713 3 b 628 -12 679 -10 656 -12 b 500 85 550 -12 514 15 l 497 85 b 263 -21 453 22 372 -21 b 29 182 118 -21 29 63 b 322 421 29 338 144 386 b 499 524 432 442 499 456 m 294 94 b 499 269 415 94 499 154 l 499 376 b 350 329 475 360 418 343 b 176 196 229 303 176 268 b 294 94 176 131 215 94 "},"ă":{"ha":728,"x_min":0,"x_max":0,"o":"m 371 817 b 179 1004 263 817 183 881 l 276 1004 b 371 917 281 946 311 917 b 464 1004 431 917 460 946 l 561 1004 b 371 817 556 885 481 817 m 499 524 b 371 614 499 575 468 614 b 204 486 254 614 211 578 l 63 486 b 371 729 69 622 157 729 b 644 481 528 729 644 669 l 644 143 b 713 72 644 93 656 67 l 713 3 b 628 -12 679 -10 656 -12 b 500 85 550 -12 514 15 l 497 85 b 263 -21 453 22 372 -21 b 29 182 118 -21 29 63 b 322 421 29 338 144 386 b 499 524 432 442 499 456 m 294 94 b 499 269 415 94 499 154 l 499 376 b 350 329 475 360 418 343 b 176 196 229 303 176 268 b 294 94 176 131 215 94 "},"â":{"ha":728,"x_min":0,"x_max":0,"o":"m 294 1006 l 449 1006 l 583 824 l 446 824 l 372 933 l 369 933 l 297 824 l 160 824 m 499 524 b 371 614 499 575 468 614 b 204 486 254 614 211 578 l 63 486 b 371 729 69 622 157 729 b 644 481 528 729 644 669 l 644 143 b 713 72 644 93 656 67 l 713 3 b 628 -12 679 -10 656 -12 b 500 85 550 -12 514 15 l 497 85 b 263 -21 453 22 372 -21 b 29 182 118 -21 29 63 b 322 421 29 338 144 386 b 499 524 432 442 499 456 m 294 94 b 499 269 415 94 499 154 l 499 376 b 350 329 475 360 418 343 b 176 196 229 303 176 268 b 294 94 176 131 215 94 "},"ä":{"ha":728,"x_min":0,"x_max":0,"o":"m 171 925 b 253 1007 171 969 200 1007 b 333 925 304 1007 333 969 b 253 846 333 883 304 846 b 171 925 200 846 171 883 m 408 925 b 490 1007 408 969 438 1007 b 571 925 542 1007 571 969 b 490 846 571 883 542 846 b 408 925 438 846 408 883 m 499 524 b 371 614 499 575 468 614 b 204 486 254 614 211 578 l 63 486 b 371 729 69 622 157 729 b 644 481 528 729 644 669 l 644 143 b 713 72 644 93 656 67 l 713 3 b 628 -12 679 -10 656 -12 b 500 85 550 -12 514 15 l 497 85 b 263 -21 453 22 372 -21 b 29 182 118 -21 29 63 b 322 421 29 338 144 386 b 499 524 432 442 499 456 m 294 94 b 499 269 415 94 499 154 l 499 376 b 350 329 475 360 418 343 b 176 196 229 303 176 268 b 294 94 176 131 215 94 "},"à":{"ha":728,"x_min":0,"x_max":0,"o":"m 429 822 l 315 822 l 200 1004 l 369 1004 m 499 524 b 371 614 499 575 468 614 b 204 486 254 614 211 578 l 63 486 b 371 729 69 622 157 729 b 644 481 528 729 644 669 l 644 143 b 713 72 644 93 656 67 l 713 3 b 628 -12 679 -10 656 -12 b 500 85 550 -12 514 15 l 497 85 b 263 -21 453 22 372 -21 b 29 182 118 -21 29 63 b 322 421 29 338 144 386 b 499 524 432 442 499 456 m 294 94 b 499 269 415 94 499 154 l 499 376 b 350 329 475 360 418 343 b 176 196 229 303 176 268 b 294 94 176 131 215 94 "},"ā":{"ha":728,"x_min":0,"x_max":0,"o":"m 557 972 l 557 861 l 186 861 l 186 972 m 499 524 b 371 614 499 575 468 614 b 204 486 254 614 211 578 l 63 486 b 371 729 69 622 157 729 b 644 481 528 729 644 669 l 644 143 b 713 72 644 93 656 67 l 713 3 b 628 -12 679 -10 656 -12 b 500 85 550 -12 514 15 l 497 85 b 263 -21 453 22 372 -21 b 29 182 118 -21 29 63 b 322 421 29 338 144 386 b 499 524 432 442 499 456 m 294 94 b 499 269 415 94 499 154 l 499 376 b 350 329 475 360 418 343 b 176 196 229 303 176 268 b 294 94 176 131 215 94 "},"ą":{"ha":728,"x_min":0,"x_max":0,"o":"m 669 -147 b 733 -135 694 -147 714 -142 l 733 -232 b 636 -246 706 -240 669 -246 b 500 -139 546 -246 500 -204 b 585 -8 500 -82 542 -33 b 500 85 536 0 511 29 l 497 85 b 263 -21 453 22 372 -21 b 29 182 118 -21 29 63 b 322 421 29 338 144 386 b 499 524 432 442 499 456 b 371 614 499 575 468 614 b 204 486 254 614 211 578 l 63 486 b 371 729 69 622 157 729 b 644 481 528 729 644 669 l 644 143 b 713 72 644 93 656 67 l 713 3 b 704 0 710 1 707 0 b 621 -108 651 -42 621 -78 b 669 -147 621 -133 642 -147 m 499 376 b 350 329 475 360 418 343 b 176 196 229 303 176 268 b 294 94 176 131 215 94 b 499 269 415 94 499 154 "},"å":{"ha":728,"x_min":0,"x_max":0,"o":"m 371 804 b 243 931 301 804 243 853 b 371 1058 243 1006 301 1058 b 499 931 440 1058 499 1006 b 371 804 499 853 440 804 m 371 865 b 433 931 404 865 433 890 b 371 996 433 971 404 996 b 308 931 338 996 308 971 b 371 865 308 890 338 865 m 499 524 b 371 614 499 575 468 614 b 204 486 254 614 211 578 l 63 486 b 371 729 69 622 157 729 b 644 481 528 729 644 669 l 644 143 b 713 72 644 93 656 67 l 713 3 b 628 -12 679 -10 656 -12 b 500 85 550 -12 514 15 l 497 85 b 263 -21 453 22 372 -21 b 29 182 118 -21 29 63 b 322 421 29 338 144 386 b 499 524 432 442 499 456 m 294 94 b 499 269 415 94 499 154 l 499 376 b 350 329 475 360 418 343 b 176 196 229 303 176 268 b 294 94 176 131 215 94 "},"ã":{"ha":728,"x_min":0,"x_max":0,"o":"m 165 853 b 274 1001 165 958 214 1001 b 446 950 340 1001 404 950 b 482 999 478 950 482 978 l 576 999 b 467 850 576 890 528 850 b 294 901 400 850 338 901 b 258 853 263 901 258 872 l 165 853 m 499 524 b 371 614 499 575 468 614 b 204 486 254 614 211 578 l 63 486 b 371 729 69 622 157 729 b 644 481 528 729 644 669 l 644 143 b 713 72 644 93 656 67 l 713 3 b 628 -12 679 -10 656 -12 b 500 85 550 -12 514 15 l 497 85 b 263 -21 453 22 372 -21 b 29 182 118 -21 29 63 b 322 421 29 338 144 386 b 499 524 432 442 499 456 m 294 94 b 499 269 415 94 499 154 l 499 376 b 350 329 475 360 418 343 b 176 196 229 303 176 268 b 294 94 176 131 215 94 "},"æ":{"ha":1219,"x_min":0,"x_max":0,"o":"m 850 99 b 1032 217 971 99 1019 174 l 1178 217 b 854 -21 1142 82 1036 -21 b 574 107 732 -21 635 26 b 272 -21 496 7 371 -21 b 29 182 118 -21 29 63 b 322 421 29 338 144 386 b 499 524 432 442 499 456 b 371 614 499 575 468 614 b 204 486 254 614 211 578 l 63 486 b 371 729 69 622 157 729 b 603 638 471 729 556 704 b 847 729 663 697 746 729 b 1189 317 1076 729 1189 569 l 644 317 b 850 99 644 197 721 99 m 847 614 b 644 425 729 614 644 535 l 1043 425 b 847 614 1043 535 965 614 m 499 376 b 350 329 475 360 418 343 b 176 196 229 303 176 268 b 294 94 176 131 215 94 b 499 269 435 94 499 178 "},"b":{"ha":783,"x_min":0,"x_max":0,"o":"m 435 729 b 751 354 617 729 751 588 b 435 -21 751 121 617 -21 b 218 82 325 -21 256 33 l 215 82 l 215 0 l 69 0 l 69 993 l 215 993 l 215 624 l 218 624 b 435 729 256 678 325 729 m 410 99 b 606 354 538 99 606 215 b 410 610 606 493 538 610 b 217 354 290 610 217 513 b 410 99 217 197 290 99 "},"c":{"ha":731,"x_min":0,"x_max":0,"o":"m 558 450 b 382 610 553 522 507 610 b 178 354 239 610 178 488 b 382 99 178 221 238 99 b 558 264 507 99 553 185 l 704 264 b 382 -21 693 100 567 -21 b 32 354 169 -21 32 132 b 381 729 32 576 169 729 b 704 450 565 729 686 611 l 558 450 "},"ć":{"ha":731,"x_min":0,"x_max":0,"o":"m 539 1004 l 424 822 l 310 822 l 369 1004 m 558 450 b 382 610 553 522 507 610 b 178 354 239 610 178 488 b 382 99 178 221 238 99 b 558 264 507 99 553 185 l 704 264 b 382 -21 693 100 567 -21 b 32 354 169 -21 32 132 b 381 729 32 576 169 729 b 704 450 565 729 686 611 l 558 450 "},"č":{"ha":731,"x_min":0,"x_max":0,"o":"m 296 1004 l 368 894 l 371 894 l 444 1004 l 582 1004 l 447 822 l 293 822 l 158 1004 m 558 450 b 382 610 553 522 507 610 b 178 354 239 610 178 488 b 382 99 178 221 238 99 b 558 264 507 99 553 185 l 704 264 b 382 -21 693 100 567 -21 b 32 354 169 -21 32 132 b 381 729 32 576 169 729 b 704 450 565 729 686 611 l 558 450 "},"ç":{"ha":731,"x_min":0,"x_max":0,"o":"m 382 99 b 558 264 507 99 553 185 l 704 264 b 404 -21 693 107 576 -11 l 356 -79 l 356 -82 b 496 -168 417 -74 496 -96 b 340 -274 496 -235 421 -274 b 189 -233 281 -274 224 -257 l 222 -193 b 324 -214 253 -206 283 -214 b 396 -167 363 -214 396 -196 b 331 -129 396 -140 374 -129 b 278 -139 315 -129 292 -133 l 258 -110 l 332 -18 b 32 354 149 4 32 150 b 381 729 32 576 169 729 b 704 450 565 729 686 611 l 558 450 b 382 610 553 522 507 610 b 178 354 239 610 178 488 b 382 99 178 221 238 99 "},"ċ":{"ha":731,"x_min":0,"x_max":0,"o":"m 288 925 b 369 1007 288 969 317 1007 b 450 925 421 1007 450 969 b 369 846 450 883 421 846 b 288 925 317 846 288 883 m 558 450 b 382 610 553 522 507 610 b 178 354 239 610 178 488 b 382 99 178 221 238 99 b 558 264 507 99 553 185 l 704 264 b 382 -21 693 100 567 -21 b 32 354 169 -21 32 132 b 381 729 32 576 169 729 b 704 450 565 729 686 611 l 558 450 "},"d":{"ha":783,"x_min":0,"x_max":0,"o":"m 714 993 l 714 0 l 568 0 l 568 82 l 565 82 b 349 -21 528 33 458 -21 b 32 354 167 -21 32 121 b 349 729 32 588 167 729 b 565 624 458 729 528 678 l 568 624 l 568 993 m 374 99 b 567 354 493 99 567 197 b 374 610 567 513 493 610 b 178 354 246 610 178 493 b 374 99 178 215 246 99 "},"ð":{"ha":778,"x_min":0,"x_max":0,"o":"m 571 865 b 744 419 660 767 744 619 b 382 -22 744 203 647 -22 b 32 357 157 -22 32 129 b 365 733 32 594 185 733 b 571 626 451 733 526 689 l 571 629 b 438 831 546 704 497 771 l 229 775 l 211 847 l 371 890 b 222 993 322 931 271 965 l 414 993 b 508 926 440 979 472 957 l 679 972 l 699 900 l 571 865 m 382 101 b 593 357 514 101 593 214 b 382 611 593 500 514 611 b 178 357 249 611 178 500 b 382 101 178 214 249 101 "},"ď":{"ha":815,"x_min":0,"x_max":0,"o":"m 872 1000 b 963 881 932 1000 963 949 b 797 710 963 808 917 722 l 797 764 b 889 840 843 771 889 803 b 786 917 828 826 786 864 b 872 1000 786 964 819 1000 m 568 993 l 714 993 l 714 0 l 568 0 l 568 82 l 565 82 b 349 -21 528 33 458 -21 b 32 354 167 -21 32 121 b 349 729 32 588 167 729 b 565 624 458 729 528 678 l 568 624 m 374 99 b 567 354 493 99 567 197 b 374 610 567 513 493 610 b 178 354 246 610 178 493 b 374 99 178 215 246 99 "},"đ":{"ha":789,"x_min":0,"x_max":0,"o":"m 801 808 l 714 808 l 714 0 l 568 0 l 568 82 l 565 82 b 349 -21 528 33 458 -21 b 32 354 167 -21 32 121 b 349 729 32 588 167 729 b 565 624 458 729 528 678 l 568 624 l 568 808 l 365 808 l 365 914 l 568 914 l 568 993 l 714 993 l 714 914 l 801 914 m 374 99 b 567 354 493 99 567 197 b 374 610 567 513 493 610 b 178 354 246 610 178 493 b 374 99 178 215 246 99 "},"e":{"ha":753,"x_min":0,"x_max":0,"o":"m 383 99 b 565 217 504 99 553 174 l 711 217 b 388 -21 675 82 569 -21 b 32 354 167 -21 32 132 b 381 729 32 585 167 729 b 722 317 610 729 722 569 l 178 317 b 383 99 178 197 254 99 m 381 614 b 178 425 263 614 178 535 l 576 425 b 381 614 576 535 499 614 "},"é":{"ha":753,"x_min":0,"x_max":0,"o":"m 432 822 l 318 822 l 378 1004 l 547 1004 m 383 99 b 565 217 504 99 553 174 l 711 217 b 388 -21 675 82 569 -21 b 32 354 167 -21 32 132 b 381 729 32 585 167 729 b 722 317 610 729 722 569 l 178 317 b 383 99 178 197 254 99 m 381 614 b 178 425 263 614 178 535 l 576 425 b 381 614 576 535 499 614 "},"ě":{"ha":753,"x_min":0,"x_max":0,"o":"m 301 822 l 167 1004 l 304 1004 l 376 894 l 379 894 l 453 1004 l 590 1004 l 456 822 m 383 99 b 565 217 504 99 553 174 l 711 217 b 388 -21 675 82 569 -21 b 32 354 167 -21 32 132 b 381 729 32 585 167 729 b 722 317 610 729 722 569 l 178 317 b 383 99 178 197 254 99 m 381 614 b 178 425 263 614 178 535 l 576 425 b 381 614 576 535 499 614 "},"ê":{"ha":753,"x_min":0,"x_max":0,"o":"m 304 824 l 167 824 l 301 1006 l 456 1006 l 590 824 l 453 824 l 379 933 l 376 933 m 383 99 b 565 217 504 99 553 174 l 711 217 b 388 -21 675 82 569 -21 b 32 354 167 -21 32 132 b 381 729 32 585 167 729 b 722 317 610 729 722 569 l 178 317 b 383 99 178 197 254 99 m 381 614 b 178 425 263 614 178 535 l 576 425 b 381 614 576 535 499 614 "},"ë":{"ha":753,"x_min":0,"x_max":0,"o":"m 260 846 b 178 925 207 846 178 883 b 260 1007 178 969 207 1007 b 340 925 311 1007 340 969 b 260 846 340 883 311 846 m 497 846 b 415 925 444 846 415 883 b 497 1007 415 969 444 1007 b 578 925 549 1007 578 969 b 497 846 578 883 549 846 m 383 99 b 565 217 504 99 553 174 l 711 217 b 388 -21 675 82 569 -21 b 32 354 167 -21 32 132 b 381 729 32 585 167 729 b 722 317 610 729 722 569 l 178 317 b 383 99 178 197 254 99 m 381 614 b 178 425 263 614 178 535 l 576 425 b 381 614 576 535 499 614 "},"ė":{"ha":753,"x_min":0,"x_max":0,"o":"m 378 846 b 296 925 325 846 296 883 b 378 1007 296 969 325 1007 b 458 925 429 1007 458 969 b 378 846 458 883 429 846 m 383 99 b 565 217 504 99 553 174 l 711 217 b 388 -21 675 82 569 -21 b 32 354 167 -21 32 132 b 381 729 32 585 167 729 b 722 317 610 729 722 569 l 178 317 b 383 99 178 197 254 99 m 381 614 b 178 425 263 614 178 535 l 576 425 b 381 614 576 535 499 614 "},"è":{"ha":753,"x_min":0,"x_max":0,"o":"m 322 822 l 207 1004 l 376 1004 l 436 822 m 383 99 b 565 217 504 99 553 174 l 711 217 b 388 -21 675 82 569 -21 b 32 354 167 -21 32 132 b 381 729 32 585 167 729 b 722 317 610 729 722 569 l 178 317 b 383 99 178 197 254 99 m 381 614 b 178 425 263 614 178 535 l 576 425 b 381 614 576 535 499 614 "},"ē":{"ha":753,"x_min":0,"x_max":0,"o":"m 564 861 l 193 861 l 193 972 l 564 972 m 383 99 b 565 217 504 99 553 174 l 711 217 b 388 -21 675 82 569 -21 b 32 354 167 -21 32 132 b 381 729 32 585 167 729 b 722 317 610 729 722 569 l 178 317 b 383 99 178 197 254 99 m 381 614 b 178 425 263 614 178 535 l 576 425 b 381 614 576 535 499 614 "},"ę":{"ha":753,"x_min":0,"x_max":0,"o":"m 383 99 b 565 217 504 99 553 174 l 711 217 b 508 -3 683 115 618 32 b 429 -108 458 -43 429 -79 b 478 -147 429 -133 450 -147 b 542 -135 503 -147 522 -142 l 542 -232 b 444 -246 514 -240 478 -246 b 308 -139 354 -246 308 -204 b 375 -21 308 -89 339 -47 b 32 354 161 -15 32 136 b 381 729 32 585 167 729 b 722 317 610 729 722 569 l 178 317 b 383 99 178 197 254 99 m 381 614 b 178 425 263 614 178 535 l 576 425 b 381 614 576 535 499 614 "},"f":{"ha":432,"x_min":0,"x_max":0,"o":"m 404 874 b 274 788 310 878 274 868 l 274 710 l 404 710 l 404 590 l 274 590 l 274 0 l 126 0 l 126 590 l 25 590 l 25 710 l 126 710 l 126 800 b 307 1003 126 950 190 1003 b 404 993 343 1003 375 999 l 404 874 "},"g":{"ha":776,"x_min":0,"x_max":0,"o":"m 707 710 l 707 49 b 382 -246 707 -156 583 -246 b 50 -19 178 -246 65 -139 l 197 -19 b 376 -129 211 -82 261 -129 b 561 54 499 -129 561 -74 l 561 140 l 558 140 b 343 35 521 88 456 35 b 32 382 165 35 32 158 b 343 729 32 607 165 729 b 558 626 456 729 521 676 l 561 626 l 561 710 m 371 154 b 560 382 489 154 560 232 b 371 610 560 532 489 610 b 178 382 243 610 178 514 b 371 154 178 251 243 154 "},"ğ":{"ha":776,"x_min":0,"x_max":0,"o":"m 365 817 b 174 1004 257 817 178 881 l 271 1004 b 365 917 275 946 306 917 b 458 1004 425 917 454 946 l 556 1004 b 365 817 550 885 475 817 m 707 710 l 707 49 b 382 -246 707 -156 583 -246 b 50 -19 178 -246 65 -139 l 197 -19 b 376 -129 211 -82 261 -129 b 561 54 499 -129 561 -74 l 561 140 l 558 140 b 343 35 521 88 456 35 b 32 382 165 35 32 158 b 343 729 32 607 165 729 b 558 626 456 729 521 676 l 561 626 l 561 710 m 371 154 b 560 382 489 154 560 232 b 371 610 560 532 489 610 b 178 382 243 610 178 514 b 371 154 178 251 243 154 "},"ģ":{"ha":776,"x_min":0,"x_max":0,"o":"m 368 792 b 278 913 308 792 278 843 b 431 1090 278 982 317 1074 l 431 1032 b 354 943 385 1024 354 990 b 444 872 403 957 444 931 b 368 792 444 825 411 792 m 707 710 l 707 49 b 382 -246 707 -156 583 -246 b 50 -19 178 -246 65 -139 l 197 -19 b 376 -129 211 -82 261 -129 b 561 54 499 -129 561 -74 l 561 140 l 558 140 b 343 35 521 88 456 35 b 32 382 165 35 32 158 b 343 729 32 607 165 729 b 558 626 456 729 521 676 l 561 626 l 561 710 m 371 154 b 560 382 489 154 560 232 b 371 610 560 532 489 610 b 178 382 243 610 178 514 b 371 154 178 251 243 154 "},"ġ":{"ha":776,"x_min":0,"x_max":0,"o":"m 365 846 b 283 925 313 846 283 883 b 365 1007 283 969 313 1007 b 446 925 417 1007 446 969 b 365 846 446 883 417 846 m 707 710 l 707 49 b 382 -246 707 -156 583 -246 b 50 -19 178 -246 65 -139 l 197 -19 b 376 -129 211 -82 261 -129 b 561 54 499 -129 561 -74 l 561 140 l 558 140 b 343 35 521 88 456 35 b 32 382 165 35 32 158 b 343 729 32 607 165 729 b 558 626 456 729 521 676 l 561 626 l 561 710 m 371 154 b 560 382 489 154 560 232 b 371 610 560 532 489 610 b 178 382 243 610 178 514 b 371 154 178 251 243 154 "},"h":{"ha":751,"x_min":0,"x_max":0,"o":"m 449 729 b 688 490 583 729 688 653 l 688 0 l 540 0 l 540 449 b 399 606 540 544 500 606 b 215 432 292 606 215 538 l 215 0 l 69 0 l 69 993 l 215 993 l 215 618 l 218 618 b 449 729 256 674 329 729 "},"ħ":{"ha":758,"x_min":0,"x_max":0,"o":"m 454 729 b 693 490 589 729 693 653 l 693 0 l 546 0 l 546 449 b 404 606 546 544 506 606 b 221 432 297 606 221 538 l 221 0 l 75 0 l 75 808 l -12 808 l -12 914 l 75 914 l 75 993 l 221 993 l 221 914 l 426 914 l 426 808 l 221 808 l 221 618 l 224 618 b 454 729 261 674 335 729 "},"i":{"ha":304,"x_min":0,"x_max":0,"o":"m 151 829 b 69 907 111 829 69 857 b 151 983 69 957 111 983 b 235 907 194 983 235 957 b 151 829 235 857 194 829 m 225 710 l 225 0 l 79 0 l 79 710 "},"ı":{"ha":231,"x_min":0,"x_max":0,"o":"m 189 710 l 189 0 l 42 0 l 42 710 "},"í":{"ha":231,"x_min":0,"x_max":0,"o":"m 285 1004 l 169 822 l 56 822 l 115 1004 m 189 710 l 189 0 l 42 0 l 42 710 "},"î":{"ha":231,"x_min":0,"x_max":0,"o":"m 39 1006 l 193 1006 l 328 824 l 190 824 l 117 933 l 114 933 l 42 824 l -96 824 m 189 710 l 189 0 l 42 0 l 42 710 "},"ï":{"ha":231,"x_min":0,"x_max":0,"o":"m -85 925 b -3 1007 -85 969 -56 1007 b 78 925 49 1007 78 969 b -3 846 78 883 49 846 b -85 925 -56 846 -85 883 m 153 925 b 235 1007 153 969 182 1007 b 315 925 286 1007 315 969 b 235 846 315 883 286 846 b 153 925 182 846 153 883 m 189 710 l 189 0 l 42 0 l 42 710 "},"ì":{"ha":231,"x_min":0,"x_max":0,"o":"m 174 822 l 60 822 l -56 1004 l 114 1004 m 189 710 l 189 0 l 42 0 l 42 710 "},"ī":{"ha":231,"x_min":0,"x_max":0,"o":"m 301 972 l 301 861 l -69 861 l -69 972 m 189 710 l 189 0 l 42 0 l 42 710 "},"į":{"ha":231,"x_min":0,"x_max":0,"o":"m 115 846 b 33 925 63 846 33 883 b 115 1007 33 969 63 1007 b 196 925 167 1007 196 969 b 115 846 196 883 167 846 m 154 -147 b 218 -135 179 -147 199 -142 l 218 -232 b 121 -246 190 -240 154 -246 b -15 -139 31 -246 -15 -204 b 88 0 -15 -74 39 -21 l 42 0 l 42 710 l 189 710 l 189 0 b 106 -108 136 -42 106 -78 b 154 -147 106 -133 126 -147 "},"j":{"ha":297,"x_min":0,"x_max":0,"o":"m 144 829 b 63 907 104 829 63 857 b 144 983 63 957 104 983 b 228 907 186 983 228 957 b 144 829 228 857 186 829 m 218 710 l 218 -33 b 67 -242 218 -164 183 -242 b -47 -226 24 -242 -7 -236 l -47 -115 b 72 -35 47 -121 72 -115 l 72 710 "},"k":{"ha":711,"x_min":0,"x_max":0,"o":"m 215 993 l 215 425 l 504 710 l 683 710 l 414 446 l 713 0 l 538 0 l 314 350 l 215 257 l 215 0 l 69 0 l 69 993 "},"ķ":{"ha":711,"x_min":0,"x_max":0,"o":"m 215 993 l 215 425 l 504 710 l 683 710 l 414 446 l 713 0 l 538 0 l 314 350 l 215 257 l 215 0 l 69 0 l 69 993 m 388 -228 b 299 -158 339 -242 299 -215 b 378 -76 299 -111 335 -76 b 465 -196 436 -76 465 -128 b 311 -365 465 -267 426 -349 l 311 -307 b 388 -228 358 -299 388 -275 "},"l":{"ha":292,"x_min":0,"x_max":0,"o":"m 219 993 l 219 0 l 72 0 l 72 993 "},"ĺ":{"ha":283,"x_min":0,"x_max":0,"o":"m 324 1251 l 208 1069 l 94 1069 l 154 1251 m 219 993 l 219 0 l 72 0 l 72 993 "},"ľ":{"ha":324,"x_min":0,"x_max":0,"o":"m 394 840 b 292 917 333 826 292 864 b 376 1000 292 964 324 1000 b 467 881 438 1000 467 949 b 303 710 467 808 421 722 l 303 764 b 394 840 347 771 394 803 m 219 993 l 219 0 l 72 0 l 72 993 "},"ļ":{"ha":292,"x_min":0,"x_max":0,"o":"m 219 993 l 219 0 l 72 0 l 72 993 m 151 -228 b 63 -158 103 -242 63 -215 b 142 -76 63 -111 99 -76 b 229 -196 200 -76 229 -128 b 75 -365 229 -267 190 -349 l 75 -307 b 151 -228 122 -299 151 -275 "},"ł":{"ha":338,"x_min":0,"x_max":0,"o":"m 344 590 l 249 521 l 249 0 l 101 0 l 101 414 l 6 344 l 6 469 l 101 539 l 101 993 l 249 993 l 249 646 l 344 715 "},"m":{"ha":1135,"x_min":0,"x_max":0,"o":"m 853 729 b 1069 490 996 729 1069 643 l 1069 0 l 922 0 l 922 449 b 803 606 922 544 903 606 b 643 432 704 606 643 538 l 643 0 l 496 0 l 496 449 b 375 606 496 544 476 606 b 215 432 278 606 215 538 l 215 0 l 69 0 l 69 710 l 215 710 l 215 618 l 218 618 b 429 729 256 674 322 729 b 618 607 529 729 589 683 l 621 607 b 853 729 674 675 743 729 "},"n":{"ha":751,"x_min":0,"x_max":0,"o":"m 451 729 b 688 490 583 729 688 653 l 688 0 l 540 0 l 540 449 b 400 606 540 544 500 606 b 215 432 288 606 215 538 l 215 0 l 69 0 l 69 710 l 215 710 l 215 618 l 218 618 b 451 729 256 674 329 729 "},"ń":{"ha":751,"x_min":0,"x_max":0,"o":"m 446 822 l 332 822 l 392 1004 l 561 1004 m 451 729 b 688 490 583 729 688 653 l 688 0 l 540 0 l 540 449 b 400 606 540 544 500 606 b 215 432 288 606 215 538 l 215 0 l 69 0 l 69 710 l 215 710 l 215 618 l 218 618 b 451 729 256 674 329 729 "},"ň":{"ha":751,"x_min":0,"x_max":0,"o":"m 315 822 l 181 1004 l 318 1004 l 390 894 l 393 894 l 467 1004 l 604 1004 l 469 822 m 451 729 b 688 490 583 729 688 653 l 688 0 l 540 0 l 540 449 b 400 606 540 544 500 606 b 215 432 288 606 215 538 l 215 0 l 69 0 l 69 710 l 215 710 l 215 618 l 218 618 b 451 729 256 674 329 729 "},"ņ":{"ha":751,"x_min":0,"x_max":0,"o":"m 451 729 b 688 490 583 729 688 653 l 688 0 l 540 0 l 540 449 b 400 606 540 544 500 606 b 215 432 288 606 215 538 l 215 0 l 69 0 l 69 710 l 215 710 l 215 618 l 218 618 b 451 729 256 674 329 729 m 375 -76 b 463 -196 433 -76 463 -128 b 308 -365 463 -267 424 -349 l 308 -307 b 385 -228 356 -299 385 -275 b 296 -158 336 -242 296 -215 b 375 -76 296 -111 332 -76 "},"ŋ":{"ha":751,"x_min":0,"x_max":0,"o":"m 451 729 b 688 490 583 729 688 653 l 688 -39 b 507 -240 688 -187 624 -240 b 407 -231 468 -240 436 -236 l 407 -111 b 540 -25 501 -115 540 -106 l 540 449 b 400 606 540 544 500 606 b 215 432 288 606 215 538 l 215 0 l 69 0 l 69 710 l 215 710 l 215 618 l 218 618 b 451 729 256 674 329 729 "},"ñ":{"ha":751,"x_min":0,"x_max":0,"o":"m 315 901 b 279 853 283 901 279 872 l 186 853 b 294 1001 186 958 235 1001 b 467 950 361 1001 425 950 b 503 999 499 950 503 978 l 597 999 b 488 850 597 890 549 850 b 315 901 421 850 358 901 m 451 729 b 688 490 583 729 688 653 l 688 0 l 540 0 l 540 449 b 400 606 540 544 500 606 b 215 432 288 606 215 538 l 215 0 l 69 0 l 69 710 l 215 710 l 215 618 l 218 618 b 451 729 256 674 329 729 "},"o":{"ha":778,"x_min":0,"x_max":0,"o":"m 389 -21 b 746 354 611 -21 746 133 b 389 729 746 575 611 729 b 32 354 167 729 32 575 b 389 -21 32 133 167 -21 m 389 99 b 178 354 250 99 178 208 b 389 610 178 501 250 610 b 600 354 528 610 600 501 b 389 99 600 208 528 99 "},"ó":{"ha":778,"x_min":0,"x_max":0,"o":"m 558 1004 l 443 822 l 329 822 l 389 1004 m 389 -21 b 746 354 611 -21 746 133 b 389 729 746 575 611 729 b 32 354 167 729 32 575 b 389 -21 32 133 167 -21 m 389 99 b 178 354 250 99 178 208 b 389 610 178 501 250 610 b 600 354 528 610 600 501 b 389 99 600 208 528 99 "},"ô":{"ha":778,"x_min":0,"x_max":0,"o":"m 313 1006 l 467 1006 l 601 824 l 464 824 l 390 933 l 388 933 l 315 824 l 178 824 m 389 -21 b 746 354 611 -21 746 133 b 389 729 746 575 611 729 b 32 354 167 729 32 575 b 389 -21 32 133 167 -21 m 389 99 b 178 354 250 99 178 208 b 389 610 178 501 250 610 b 600 354 528 610 600 501 b 389 99 600 208 528 99 "},"ö":{"ha":778,"x_min":0,"x_max":0,"o":"m 189 925 b 271 1007 189 969 218 1007 b 351 925 322 1007 351 969 b 271 846 351 883 322 846 b 189 925 218 846 189 883 m 426 925 b 508 1007 426 969 456 1007 b 589 925 560 1007 589 969 b 508 846 589 883 560 846 b 426 925 456 846 426 883 m 389 -21 b 746 354 611 -21 746 133 b 389 729 746 575 611 729 b 32 354 167 729 32 575 b 389 -21 32 133 167 -21 m 389 99 b 178 354 250 99 178 208 b 389 610 178 501 250 610 b 600 354 528 610 600 501 b 389 99 600 208 528 99 "},"ò":{"ha":778,"x_min":0,"x_max":0,"o":"m 447 822 l 333 822 l 218 1004 l 388 1004 m 389 -21 b 746 354 611 -21 746 133 b 389 729 746 575 611 729 b 32 354 167 729 32 575 b 389 -21 32 133 167 -21 m 389 99 b 178 354 250 99 178 208 b 389 610 178 501 250 610 b 600 354 528 610 600 501 b 389 99 600 208 528 99 "},"ő":{"ha":778,"x_min":0,"x_max":0,"o":"m 436 1004 l 321 822 l 207 822 l 267 1004 m 668 1004 l 553 822 l 439 822 l 499 1004 m 389 -21 b 746 354 611 -21 746 133 b 389 729 746 575 611 729 b 32 354 167 729 32 575 b 389 -21 32 133 167 -21 m 389 99 b 178 354 250 99 178 208 b 389 610 178 501 250 610 b 600 354 528 610 600 501 b 389 99 600 208 528 99 "},"ō":{"ha":778,"x_min":0,"x_max":0,"o":"m 575 972 l 575 861 l 204 861 l 204 972 m 389 -21 b 746 354 611 -21 746 133 b 389 729 746 575 611 729 b 32 354 167 729 32 575 b 389 -21 32 133 167 -21 m 389 99 b 178 354 250 99 178 208 b 389 610 178 501 250 610 b 600 354 528 610 600 501 b 389 99 600 208 528 99 "},"ø":{"ha":803,"x_min":0,"x_max":0,"o":"m 683 583 b 746 354 724 522 746 443 b 389 -21 746 133 611 -21 b 156 57 294 -21 215 7 l 85 -15 l 35 36 l 107 108 b 32 354 58 172 32 257 b 389 729 32 575 167 729 b 636 639 492 729 575 696 l 719 724 l 771 672 m 178 354 b 208 210 178 300 188 250 l 540 544 b 389 610 506 586 454 610 b 178 354 250 610 178 501 m 600 354 b 579 479 600 400 593 443 l 250 150 b 389 99 285 118 331 99 b 600 354 528 99 600 208 "},"õ":{"ha":778,"x_min":0,"x_max":0,"o":"m 183 853 b 292 1001 183 958 232 1001 b 464 950 358 1001 422 950 b 500 999 496 950 500 978 l 594 999 b 485 850 594 890 546 850 b 313 901 418 850 356 901 b 276 853 281 901 276 872 l 183 853 m 389 -21 b 746 354 611 -21 746 133 b 389 729 746 575 611 729 b 32 354 167 729 32 575 b 389 -21 32 133 167 -21 m 389 99 b 178 354 250 99 178 208 b 389 610 178 501 250 610 b 600 354 528 610 600 501 b 389 99 600 208 528 99 "},"œ":{"ha":1347,"x_min":0,"x_max":0,"o":"m 978 99 b 1160 217 1099 99 1147 174 l 1306 217 b 982 -21 1269 82 1164 -21 b 686 129 847 -21 746 36 b 389 -21 626 36 524 -21 b 32 354 167 -21 32 133 b 389 729 32 575 167 729 b 685 581 522 729 625 674 b 975 729 743 675 844 729 b 1317 317 1204 729 1317 569 l 772 317 b 978 99 772 197 849 99 m 975 614 b 772 425 857 614 772 535 l 1171 425 b 975 614 1171 535 1093 614 m 389 99 b 600 354 528 99 600 208 b 389 610 600 501 528 610 b 178 354 250 610 178 501 b 389 99 178 208 250 99 "},"p":{"ha":789,"x_min":0,"x_max":0,"o":"m 438 729 b 753 354 618 729 753 588 b 438 -21 753 121 618 -21 b 219 85 326 -21 257 32 l 217 85 l 217 -242 l 69 -242 l 69 710 l 217 710 l 217 626 l 219 626 b 438 729 257 676 326 729 m 410 99 b 606 354 538 99 606 215 b 410 610 606 493 538 610 b 218 354 292 610 218 513 b 410 99 218 197 292 99 "},"þ":{"ha":783,"x_min":0,"x_max":0,"o":"m 438 729 b 751 354 617 729 751 588 b 438 -21 751 121 617 -21 b 218 94 321 -21 256 32 l 215 94 l 215 -242 l 69 -242 l 69 993 l 215 993 l 215 618 l 218 618 b 438 729 256 676 321 729 m 410 99 b 606 354 538 99 606 215 b 410 610 606 493 538 610 b 217 354 290 610 217 513 b 410 99 217 197 290 99 "},"q":{"ha":789,"x_min":0,"x_max":0,"o":"m 719 710 l 719 -242 l 572 -242 l 572 85 l 569 85 b 351 -21 532 32 463 -21 b 36 354 171 -21 36 121 b 351 729 36 588 171 729 b 569 626 463 729 532 676 l 572 626 l 572 710 m 379 99 b 571 354 497 99 571 197 b 379 610 571 513 497 610 b 183 354 251 610 183 493 b 379 99 183 215 251 99 "},"r":{"ha":494,"x_min":0,"x_max":0,"o":"m 407 726 b 471 722 432 726 450 725 l 471 585 l 468 585 b 215 363 328 608 215 514 l 215 0 l 69 0 l 69 710 l 215 710 l 215 576 l 218 576 b 407 726 256 665 314 726 "},"ŕ":{"ha":494,"x_min":0,"x_max":0,"o":"m 325 822 l 211 822 l 271 1004 l 440 1004 m 407 726 b 471 722 432 726 450 725 l 471 585 l 468 585 b 215 363 328 608 215 514 l 215 0 l 69 0 l 69 710 l 215 710 l 215 576 l 218 576 b 407 726 256 665 314 726 "},"ř":{"ha":494,"x_min":0,"x_max":0,"o":"m 194 822 l 60 1004 l 197 1004 l 269 894 l 272 894 l 346 1004 l 483 1004 l 349 822 m 218 576 b 407 726 256 665 314 726 b 471 722 432 726 450 725 l 471 585 l 468 585 b 215 363 328 608 215 514 l 215 0 l 69 0 l 69 710 l 215 710 l 215 576 l 218 576 "},"ŗ":{"ha":494,"x_min":0,"x_max":0,"o":"m 407 726 b 471 722 432 726 450 725 l 471 585 l 468 585 b 215 363 328 608 215 514 l 215 0 l 69 0 l 69 710 l 215 710 l 215 576 l 218 576 b 407 726 256 665 314 726 m 143 -76 b 231 -196 201 -76 231 -128 b 76 -365 231 -267 192 -349 l 76 -307 b 153 -228 124 -299 153 -275 b 64 -158 104 -242 64 -215 b 143 -76 64 -111 100 -76 "},"s":{"ha":676,"x_min":0,"x_max":0,"o":"m 376 429 b 649 200 507 399 649 369 b 360 -21 649 64 532 -21 b 25 236 131 -21 32 86 l 167 236 b 357 94 174 160 207 94 b 501 189 458 94 501 144 b 313 310 501 278 417 285 b 47 519 200 336 47 358 b 328 729 47 636 150 729 b 622 501 521 729 613 625 l 481 501 b 329 614 471 557 443 614 b 194 531 242 614 194 581 b 376 429 194 458 274 453 "},"ś":{"ha":676,"x_min":0,"x_max":0,"o":"m 506 1004 l 390 822 l 276 822 l 336 1004 m 376 429 b 649 200 507 399 649 369 b 360 -21 649 64 532 -21 b 25 236 131 -21 32 86 l 167 236 b 357 94 174 160 207 94 b 501 189 458 94 501 144 b 313 310 501 278 417 285 b 47 519 200 336 47 358 b 328 729 47 636 150 729 b 622 501 521 729 613 625 l 481 501 b 329 614 471 557 443 614 b 194 531 242 614 194 581 b 376 429 194 458 274 453 "},"š":{"ha":676,"x_min":0,"x_max":0,"o":"m 263 1004 l 335 894 l 338 894 l 411 1004 l 549 1004 l 414 822 l 260 822 l 125 1004 m 376 429 b 649 200 507 399 649 369 b 360 -21 649 64 532 -21 b 25 236 131 -21 32 86 l 167 236 b 357 94 174 160 207 94 b 501 189 458 94 501 144 b 313 310 501 278 417 285 b 47 519 200 336 47 358 b 328 729 47 636 150 729 b 622 501 521 729 613 625 l 481 501 b 329 614 471 557 443 614 b 194 531 242 614 194 581 b 376 429 194 458 274 453 "},"ş":{"ha":676,"x_min":0,"x_max":0,"o":"m 328 -79 l 328 -82 b 468 -168 389 -74 468 -96 b 313 -274 468 -235 393 -274 b 161 -233 253 -274 196 -257 l 194 -193 b 296 -214 225 -206 256 -214 b 368 -167 335 -214 368 -196 b 303 -129 368 -140 346 -129 b 250 -139 288 -129 264 -133 l 231 -110 l 304 -18 b 25 236 114 -3 32 99 l 167 236 b 357 94 174 160 207 94 b 501 189 458 94 501 144 b 313 310 501 278 417 285 b 47 519 200 336 47 358 b 328 729 47 636 150 729 b 622 501 521 729 613 625 l 481 501 b 329 614 471 557 443 614 b 194 531 242 614 194 581 b 376 429 194 458 274 453 b 649 200 507 399 649 369 b 375 -21 649 68 539 -15 "},"ș":{"ha":676,"x_min":0,"x_max":0,"o":"m 376 429 b 649 200 507 399 649 369 b 360 -21 649 64 532 -21 b 25 236 131 -21 32 86 l 167 236 b 357 94 174 160 207 94 b 501 189 458 94 501 144 b 313 310 501 278 417 285 b 47 519 200 336 47 358 b 328 729 47 636 150 729 b 622 501 521 729 613 625 l 481 501 b 329 614 471 557 443 614 b 194 531 242 614 194 581 b 376 429 194 458 274 453 m 350 -228 b 261 -158 301 -242 261 -215 b 340 -76 261 -111 297 -76 b 428 -196 399 -76 428 -128 b 274 -365 428 -267 389 -349 l 274 -307 b 350 -228 321 -299 350 -275 "},"ß":{"ha":738,"x_min":0,"x_max":0,"o":"m 215 0 l 69 0 l 69 703 b 376 1014 69 890 172 1014 b 660 763 529 1014 660 913 b 508 551 660 643 589 586 l 508 549 b 706 269 628 511 706 415 b 436 -21 706 99 589 -21 b 294 0 379 -21 343 -14 l 294 119 b 560 283 474 63 560 160 b 343 493 560 443 444 493 l 304 493 l 304 604 l 339 604 b 514 749 426 604 514 650 b 376 894 514 825 468 894 b 215 703 253 894 215 818 "},"t":{"ha":444,"x_min":0,"x_max":0,"o":"m 275 590 l 275 206 b 408 121 275 125 314 115 l 408 1 b 308 -10 379 -6 347 -10 b 128 193 192 -10 128 43 l 128 590 l 25 590 l 25 710 l 128 710 l 128 933 l 275 933 l 275 710 l 408 710 l 408 590 "},"ŧ":{"ha":444,"x_min":0,"x_max":0,"o":"m 275 590 l 275 472 l 408 472 l 408 365 l 275 365 l 275 206 b 408 121 275 125 314 115 l 408 1 b 308 -10 379 -6 347 -10 b 128 193 192 -10 128 43 l 128 365 l 25 365 l 25 472 l 128 472 l 128 590 l 25 590 l 25 710 l 128 710 l 128 933 l 275 933 l 275 710 l 408 710 l 408 590 "},"ť":{"ha":468,"x_min":0,"x_max":0,"o":"m 424 1069 b 514 950 483 1069 514 1018 b 350 779 514 878 468 792 l 350 833 b 442 910 394 840 442 872 b 339 986 381 896 339 933 b 424 1069 339 1033 371 1069 m 275 710 l 408 710 l 408 590 l 275 590 l 275 206 b 408 121 275 125 314 115 l 408 1 b 308 -10 379 -6 347 -10 b 128 193 192 -10 128 43 l 128 590 l 25 590 l 25 710 l 128 710 l 128 933 l 275 933 "},"ţ":{"ha":444,"x_min":0,"x_max":0,"o":"m 279 -74 b 419 -160 340 -65 419 -87 b 264 -265 419 -226 344 -265 b 113 -225 204 -265 147 -249 l 146 -185 b 247 -206 176 -197 207 -206 b 319 -158 286 -206 319 -187 b 254 -121 319 -132 297 -121 b 201 -131 239 -121 215 -125 l 182 -101 l 258 -6 b 128 193 174 8 128 65 l 128 590 l 25 590 l 25 710 l 128 710 l 128 933 l 275 933 l 275 710 l 408 710 l 408 590 l 275 590 l 275 206 b 408 121 275 125 314 115 l 408 1 b 329 -10 385 -4 360 -8 l 279 -71 l 279 -74 "},"ț":{"ha":444,"x_min":0,"x_max":0,"o":"m 275 590 l 275 206 b 408 121 275 125 314 115 l 408 1 b 308 -10 379 -6 347 -10 b 128 193 192 -10 128 43 l 128 590 l 25 590 l 25 710 l 128 710 l 128 933 l 275 933 l 275 710 l 408 710 l 408 590 m 292 -68 b 379 -187 350 -68 379 -119 b 225 -357 379 -258 340 -340 l 225 -299 b 301 -219 272 -290 301 -267 b 213 -150 253 -233 213 -207 b 292 -68 213 -103 249 -68 "},"u":{"ha":751,"x_min":0,"x_max":0,"o":"m 682 710 l 682 0 l 536 0 l 536 92 l 533 92 b 300 -19 496 36 422 -19 b 64 219 168 -19 64 57 l 64 710 l 211 710 l 211 261 b 351 104 211 165 251 104 b 536 278 464 104 536 172 l 536 710 "},"ú":{"ha":751,"x_min":0,"x_max":0,"o":"m 428 822 l 314 822 l 374 1004 l 543 1004 m 682 710 l 682 0 l 536 0 l 536 92 l 533 92 b 300 -19 496 36 422 -19 b 64 219 168 -19 64 57 l 64 710 l 211 710 l 211 261 b 351 104 211 165 251 104 b 536 278 464 104 536 172 l 536 710 "},"û":{"ha":751,"x_min":0,"x_max":0,"o":"m 300 824 l 163 824 l 297 1006 l 451 1006 l 586 824 l 449 824 l 375 933 l 372 933 m 682 710 l 682 0 l 536 0 l 536 92 l 533 92 b 300 -19 496 36 422 -19 b 64 219 168 -19 64 57 l 64 710 l 211 710 l 211 261 b 351 104 211 165 251 104 b 536 278 464 104 536 172 l 536 710 "},"ü":{"ha":751,"x_min":0,"x_max":0,"o":"m 256 846 b 174 925 203 846 174 883 b 256 1007 174 969 203 1007 b 336 925 307 1007 336 969 b 256 846 336 883 307 846 m 493 846 b 411 925 440 846 411 883 b 493 1007 411 969 440 1007 b 574 925 544 1007 574 969 b 493 846 574 883 544 846 m 682 710 l 682 0 l 536 0 l 536 92 l 533 92 b 300 -19 496 36 422 -19 b 64 219 168 -19 64 57 l 64 710 l 211 710 l 211 261 b 351 104 211 165 251 104 b 536 278 464 104 536 172 l 536 710 "},"ù":{"ha":751,"x_min":0,"x_max":0,"o":"m 318 822 l 203 1004 l 372 1004 l 432 822 m 682 710 l 682 0 l 536 0 l 536 92 l 533 92 b 300 -19 496 36 422 -19 b 64 219 168 -19 64 57 l 64 710 l 211 710 l 211 261 b 351 104 211 165 251 104 b 536 278 464 104 536 172 l 536 710 "},"ű":{"ha":751,"x_min":0,"x_max":0,"o":"m 306 822 l 192 822 l 251 1004 l 421 1004 m 538 822 l 424 822 l 483 1004 l 653 1004 m 682 710 l 682 0 l 536 0 l 536 92 l 533 92 b 300 -19 496 36 422 -19 b 64 219 168 -19 64 57 l 64 710 l 211 710 l 211 261 b 351 104 211 165 251 104 b 536 278 464 104 536 172 l 536 710 "},"ū":{"ha":751,"x_min":0,"x_max":0,"o":"m 560 861 l 189 861 l 189 972 l 560 972 m 682 710 l 682 0 l 536 0 l 536 92 l 533 92 b 300 -19 496 36 422 -19 b 64 219 168 -19 64 57 l 64 710 l 211 710 l 211 261 b 351 104 211 165 251 104 b 536 278 464 104 536 172 l 536 710 "},"ų":{"ha":751,"x_min":0,"x_max":0,"o":"m 649 -147 b 713 -135 674 -147 693 -142 l 713 -232 b 615 -246 685 -240 649 -246 b 479 -139 525 -246 479 -204 b 582 0 479 -74 533 -21 l 536 0 l 536 92 l 533 92 b 300 -19 496 36 422 -19 b 64 219 168 -19 64 57 l 64 710 l 211 710 l 211 261 b 351 104 211 165 251 104 b 536 278 464 104 536 172 l 536 710 l 682 710 l 682 0 l 683 0 b 600 -108 631 -42 600 -78 b 649 -147 600 -133 621 -147 "},"ů":{"ha":751,"x_min":0,"x_max":0,"o":"m 374 804 b 246 931 304 804 246 853 b 374 1058 246 1006 304 1058 b 501 931 443 1058 501 1006 b 374 804 501 853 443 804 m 374 996 b 311 931 340 996 311 971 b 374 865 311 890 340 865 b 436 931 407 865 436 890 b 374 996 436 971 407 996 m 682 710 l 682 0 l 536 0 l 536 92 l 533 92 b 300 -19 496 36 422 -19 b 64 219 168 -19 64 57 l 64 710 l 211 710 l 211 261 b 351 104 211 165 251 104 b 536 278 464 104 536 172 l 536 710 "},"v":{"ha":668,"x_min":0,"x_max":0,"o":"m 154 710 l 333 154 l 335 154 l 514 710 l 668 710 l 417 0 l 251 0 l 0 710 "},"w":{"ha":1042,"x_min":0,"x_max":0,"o":"m 157 710 l 301 171 l 304 171 l 449 710 l 592 710 l 738 171 l 740 171 l 883 710 l 1038 710 l 821 0 l 674 0 l 521 542 l 518 542 l 367 0 l 221 0 l 3 710 "},"ẃ":{"ha":1042,"x_min":0,"x_max":0,"o":"m 690 1004 l 575 822 l 461 822 l 521 1004 m 157 710 l 301 171 l 304 171 l 449 710 l 592 710 l 738 171 l 740 171 l 883 710 l 1038 710 l 821 0 l 674 0 l 521 542 l 518 542 l 367 0 l 221 0 l 3 710 "},"ŵ":{"ha":1042,"x_min":0,"x_max":0,"o":"m 444 1006 l 599 1006 l 733 824 l 596 824 l 522 933 l 519 933 l 447 824 l 310 824 m 157 710 l 301 171 l 304 171 l 449 710 l 592 710 l 738 171 l 740 171 l 883 710 l 1038 710 l 821 0 l 674 0 l 521 542 l 518 542 l 367 0 l 221 0 l 3 710 "},"ẅ":{"ha":1042,"x_min":0,"x_max":0,"o":"m 321 925 b 403 1007 321 969 350 1007 b 483 925 454 1007 483 969 b 403 846 483 883 454 846 b 321 925 350 846 321 883 m 558 925 b 640 1007 558 969 588 1007 b 721 925 692 1007 721 969 b 640 846 721 883 692 846 b 558 925 588 846 558 883 m 157 710 l 301 171 l 304 171 l 449 710 l 592 710 l 738 171 l 740 171 l 883 710 l 1038 710 l 821 0 l 674 0 l 521 542 l 518 542 l 367 0 l 221 0 l 3 710 "},"ẁ":{"ha":1042,"x_min":0,"x_max":0,"o":"m 579 822 l 465 822 l 350 1004 l 519 1004 m 157 710 l 301 171 l 304 171 l 449 710 l 592 710 l 738 171 l 740 171 l 883 710 l 1038 710 l 821 0 l 674 0 l 521 542 l 518 542 l 367 0 l 221 0 l 3 710 "},"x":{"ha":724,"x_min":0,"x_max":0,"o":"m 199 710 l 360 460 l 363 460 l 524 710 l 689 710 l 450 363 l 715 0 l 546 0 l 363 267 l 360 267 l 179 0 l 8 0 l 274 363 l 33 710 "},"y":{"ha":697,"x_min":0,"x_max":0,"o":"m 413 -44 b 190 -242 372 -154 326 -242 b 86 -228 149 -242 114 -235 l 86 -117 l 99 -117 b 238 -82 160 -125 206 -121 b 257 72 264 -50 283 6 l 0 710 l 157 710 l 356 167 l 358 167 l 540 710 l 696 710 "},"ý":{"ha":697,"x_min":0,"x_max":0,"o":"m 518 1004 l 403 822 l 289 822 l 349 1004 m 413 -44 b 190 -242 372 -154 326 -242 b 86 -228 149 -242 114 -235 l 86 -117 l 99 -117 b 238 -82 160 -125 206 -121 b 257 72 264 -50 283 6 l 0 710 l 157 710 l 356 167 l 358 167 l 540 710 l 696 710 "},"ŷ":{"ha":697,"x_min":0,"x_max":0,"o":"m 272 1006 l 426 1006 l 561 824 l 424 824 l 350 933 l 347 933 l 275 824 l 138 824 m 413 -44 b 190 -242 372 -154 326 -242 b 86 -228 149 -242 114 -235 l 86 -117 l 99 -117 b 238 -82 160 -125 206 -121 b 257 72 264 -50 283 6 l 0 710 l 157 710 l 356 167 l 358 167 l 540 710 l 696 710 "},"ÿ":{"ha":697,"x_min":0,"x_max":0,"o":"m 149 925 b 231 1007 149 969 178 1007 b 311 925 282 1007 311 969 b 231 846 311 883 282 846 b 149 925 178 846 149 883 m 386 925 b 468 1007 386 969 415 1007 b 549 925 519 1007 549 969 b 468 846 549 883 519 846 b 386 925 415 846 386 883 m 413 -44 b 190 -242 372 -154 326 -242 b 86 -228 149 -242 114 -235 l 86 -117 l 99 -117 b 238 -82 160 -125 206 -121 b 257 72 264 -50 283 6 l 0 710 l 157 710 l 356 167 l 358 167 l 540 710 l 696 710 "},"ỳ":{"ha":697,"x_min":0,"x_max":0,"o":"m 407 822 l 293 822 l 178 1004 l 347 1004 m 413 -44 b 190 -242 372 -154 326 -242 b 86 -228 149 -242 114 -235 l 86 -117 l 99 -117 b 238 -82 160 -125 206 -121 b 257 72 264 -50 283 6 l 0 710 l 157 710 l 356 167 l 358 167 l 540 710 l 696 710 "},"z":{"ha":669,"x_min":0,"x_max":0,"o":"m 425 588 l 425 590 l 68 590 l 68 710 l 621 710 l 621 613 l 231 122 l 231 119 l 636 119 l 636 0 l 43 0 l 43 108 "},"ź":{"ha":669,"x_min":0,"x_max":0,"o":"m 515 1004 l 400 822 l 286 822 l 346 1004 m 425 588 l 425 590 l 68 590 l 68 710 l 621 710 l 621 613 l 231 122 l 231 119 l 636 119 l 636 0 l 43 0 l 43 108 "},"ž":{"ha":669,"x_min":0,"x_max":0,"o":"m 272 1004 l 344 894 l 347 894 l 421 1004 l 558 1004 l 424 822 l 269 822 l 135 1004 m 425 588 l 425 590 l 68 590 l 68 710 l 621 710 l 621 613 l 231 122 l 231 119 l 636 119 l 636 0 l 43 0 l 43 108 "},"ż":{"ha":669,"x_min":0,"x_max":0,"o":"m 264 925 b 346 1007 264 969 293 1007 b 426 925 397 1007 426 969 b 346 846 426 883 397 846 b 264 925 293 846 264 883 m 425 588 l 425 590 l 68 590 l 68 710 l 621 710 l 621 613 l 231 122 l 231 119 l 636 119 l 636 0 l 43 0 l 43 108 "},"⁄":{"ha":358,"x_min":0,"x_max":0,"o":"m 607 993 l -133 0 l -249 0 l 492 993 "},"*":{"ha":542,"x_min":0,"x_max":0,"o":"m 347 756 l 435 631 l 358 575 l 271 707 l 183 575 l 106 631 l 194 756 l 56 799 l 86 885 l 224 836 l 224 993 l 319 993 l 319 836 l 456 885 l 486 799 "},"\\":{"ha":561,"x_min":0,"x_max":0,"o":"m 154 993 l 539 0 l 406 0 l 21 993 "},"·":{"ha":292,"x_min":0,"x_max":0,"o":"m 149 340 b 58 431 97 340 58 375 b 149 521 58 485 97 521 b 238 431 199 521 238 485 b 149 340 238 375 199 340 "},"•":{"ha":457,"x_min":0,"x_max":0,"o":"m 229 264 b 49 444 118 264 49 346 b 229 625 49 543 118 625 b 408 444 339 625 408 543 b 229 264 408 346 339 264 "},":":{"ha":300,"x_min":0,"x_max":0,"o":"m 150 415 b 60 506 99 415 60 450 b 150 596 60 560 99 596 b 239 506 200 596 239 560 b 150 415 239 450 200 415 m 150 -11 b 60 79 99 -11 60 24 b 150 169 60 133 99 169 b 239 79 200 169 239 133 b 150 -11 239 24 200 -11 "},",":{"ha":296,"x_min":0,"x_max":0,"o":"m 154 -10 b 56 76 100 -19 56 11 b 146 169 56 136 96 169 b 240 42 208 169 240 119 b 69 -194 240 -60 190 -175 l 69 -115 b 154 -10 121 -106 154 -62 "},"…":{"ha":781,"x_min":0,"x_max":0,"o":"m 146 -11 b 56 79 94 -11 56 24 b 146 169 56 133 94 169 b 235 79 196 169 235 133 b 146 -11 235 24 196 -11 m 390 -11 b 300 79 339 -11 300 24 b 390 169 300 133 339 169 b 479 79 440 169 479 133 b 390 -11 479 24 440 -11 m 635 -11 b 544 79 583 -11 544 24 b 635 169 544 133 583 169 b 724 79 685 169 724 133 b 635 -11 724 24 685 -11 "},"!":{"ha":342,"x_min":0,"x_max":0,"o":"m 256 993 l 256 731 l 217 278 l 135 278 l 96 731 l 96 993 m 176 -11 b 86 79 125 -11 86 24 b 176 169 86 133 125 169 b 265 79 226 169 265 133 b 176 -11 265 24 226 -11 "},"¡":{"ha":351,"x_min":0,"x_max":0,"o":"m 176 824 b 265 733 226 824 265 789 b 176 643 265 679 226 643 b 86 733 125 643 86 679 b 176 824 86 789 125 824 m 96 82 l 135 535 l 217 535 l 256 82 l 256 -181 l 96 -181 "},"#":{"ha":814,"x_min":0,"x_max":0,"o":"m 621 582 l 581 381 l 724 381 l 701 261 l 556 261 l 503 0 l 383 0 l 436 261 l 283 261 l 231 0 l 111 0 l 164 261 l 40 261 l 63 381 l 189 381 l 229 582 l 92 582 l 115 701 l 253 701 l 306 960 l 425 960 l 372 701 l 525 701 l 576 960 l 697 960 l 644 701 l 775 701 l 751 582 m 500 582 l 349 582 l 308 381 l 460 381 "},".":{"ha":292,"x_min":0,"x_max":0,"o":"m 146 -11 b 56 79 94 -11 56 24 b 146 169 56 133 94 169 b 235 79 196 169 235 133 b 146 -11 235 24 196 -11 "},"?":{"ha":722,"x_min":0,"x_max":0,"o":"m 22 675 b 375 1014 22 868 136 1014 b 685 754 551 1014 685 907 b 536 521 685 635 619 581 b 394 276 453 461 394 417 l 251 276 b 389 572 251 425 303 500 b 524 751 456 631 524 656 b 371 876 524 821 467 876 b 183 675 258 876 183 822 m 324 -11 b 233 79 272 -11 233 24 b 324 169 233 133 272 169 b 413 79 374 169 413 133 b 324 -11 413 24 374 -11 "},"¿":{"ha":719,"x_min":0,"x_max":0,"o":"m 396 824 b 486 733 447 824 486 789 b 396 643 486 679 447 643 b 307 733 346 643 307 679 b 396 824 307 789 346 824 m 697 138 b 344 -201 697 -56 583 -201 b 35 58 168 -201 35 -94 b 183 292 35 178 100 232 b 325 536 267 351 325 396 l 468 536 b 331 240 468 388 417 313 b 196 61 264 182 196 157 b 349 -64 196 -8 253 -64 b 536 138 461 -64 536 -10 "},"\"":{"ha":479,"x_min":0,"x_max":0,"o":"m 196 993 l 178 671 l 76 671 l 58 993 m 422 993 l 404 671 l 303 671 l 285 993 "},"'":{"ha":254,"x_min":0,"x_max":0,"o":"m 196 993 l 178 671 l 76 671 l 58 993 "},";":{"ha":304,"x_min":0,"x_max":0,"o":"m 153 415 b 63 506 101 415 63 450 b 153 596 63 560 101 596 b 242 506 203 596 242 560 b 153 415 242 450 203 415 m 158 -10 b 60 76 104 -19 60 11 b 150 169 60 136 100 169 b 244 42 213 169 244 119 b 74 -194 244 -60 194 -175 l 74 -115 b 158 -10 125 -106 158 -62 "},"/":{"ha":568,"x_min":0,"x_max":0,"o":"m 153 0 l 19 0 l 404 993 l 538 993 "},"_":{"ha":576,"x_min":0,"x_max":0,"o":"m 579 -106 l 579 -242 l -3 -242 l -3 -106 "},"{":{"ha":457,"x_min":0,"x_max":0,"o":"m 33 511 b 119 629 104 510 119 558 l 119 786 b 383 1056 119 1019 207 1056 l 414 1056 l 414 919 l 383 919 b 279 790 321 919 279 892 l 279 593 b 193 444 279 514 246 472 l 193 442 b 279 292 246 414 279 372 l 279 100 b 383 -35 279 -7 321 -35 l 414 -35 l 414 -171 l 383 -171 b 119 104 207 -171 119 -129 l 119 256 b 33 375 119 326 104 375 l 33 511 "},"}":{"ha":457,"x_min":0,"x_max":0,"o":"m 424 375 b 338 256 353 375 338 326 l 338 104 b 74 -171 338 -129 250 -171 l 43 -171 l 43 -35 l 74 -35 b 178 100 136 -35 178 -7 l 178 292 b 264 442 178 372 211 414 l 264 444 b 178 593 211 472 178 514 l 178 790 b 74 919 178 892 136 919 l 43 919 l 43 1056 l 74 1056 b 338 786 250 1056 338 1019 l 338 629 b 424 511 338 558 353 510 "},"[":{"ha":457,"x_min":0,"x_max":0,"o":"m 414 1056 l 414 919 l 260 919 l 260 -35 l 414 -35 l 414 -171 l 99 -171 l 99 1056 "},"]":{"ha":457,"x_min":0,"x_max":0,"o":"m 358 -171 l 43 -171 l 43 -35 l 197 -35 l 197 919 l 43 919 l 43 1056 l 358 1056 "},"(":{"ha":439,"x_min":0,"x_max":0,"o":"m 411 1056 b 253 440 324 888 253 697 b 411 -171 253 189 324 -3 l 283 -171 b 93 440 182 -31 93 189 b 283 1056 93 700 182 915 "},")":{"ha":439,"x_min":0,"x_max":0,"o":"m 157 1056 b 347 440 258 915 347 700 b 157 -171 347 189 258 -31 l 29 -171 b 188 440 117 -3 188 189 b 29 1056 188 697 117 888 l 157 1056 "},"—":{"ha":1389,"x_min":0,"x_max":0,"o":"m 1250 421 l 1250 283 l 139 283 l 139 421 "},"–":{"ha":694,"x_min":0,"x_max":0,"o":"m 694 421 l 694 285 l 0 285 l 0 421 "},"-":{"ha":474,"x_min":0,"x_max":0,"o":"m 424 421 l 424 285 l 50 285 l 50 421 "},"«":{"ha":543,"x_min":0,"x_max":0,"o":"m 42 426 l 239 597 l 239 456 l 115 351 l 115 349 l 239 244 l 239 103 l 42 274 m 303 426 l 501 597 l 501 456 l 376 351 l 376 349 l 501 244 l 501 103 l 303 274 "},"»":{"ha":543,"x_min":0,"x_max":0,"o":"m 42 103 l 42 244 l 167 349 l 167 351 l 42 456 l 42 597 l 240 426 l 240 274 m 304 103 l 304 244 l 428 349 l 428 351 l 304 456 l 304 597 l 501 426 l 501 274 "},"‹":{"ha":350,"x_min":0,"x_max":0,"o":"m 67 426 l 281 597 l 281 456 l 144 351 l 144 349 l 281 244 l 281 103 l 67 274 "},"›":{"ha":350,"x_min":0,"x_max":0,"o":"m 69 103 l 69 244 l 206 349 l 206 351 l 69 456 l 69 597 l 283 426 l 283 274 "},"„":{"ha":531,"x_min":0,"x_max":0,"o":"m 153 -10 b 54 76 99 -19 54 11 b 144 169 54 136 94 169 b 239 42 207 169 239 119 b 68 -194 239 -60 189 -175 l 68 -115 b 153 -10 119 -106 153 -62 m 390 -10 b 292 76 336 -19 292 11 b 382 169 292 136 332 169 b 476 42 444 169 476 119 b 306 -194 476 -60 426 -175 l 306 -115 b 390 -10 357 -106 390 -62 "},"“":{"ha":529,"x_min":0,"x_max":0,"o":"m 140 813 b 239 726 194 822 239 792 b 149 633 239 667 199 633 b 54 761 86 633 54 683 b 225 997 54 863 104 978 l 225 918 b 140 813 174 908 140 865 m 376 813 b 475 726 431 822 475 792 b 385 633 475 667 435 633 b 290 761 322 633 290 683 b 461 997 290 863 340 978 l 461 918 b 376 813 410 908 376 865 "},"”":{"ha":529,"x_min":0,"x_max":0,"o":"m 153 825 b 54 911 99 815 54 846 b 144 1004 54 971 94 1004 b 239 876 207 1004 239 954 b 68 640 239 775 189 660 l 68 719 b 153 825 119 729 153 772 m 389 825 b 290 911 335 815 290 846 b 381 1004 290 971 331 1004 b 475 876 443 1004 475 954 b 304 640 475 775 425 660 l 304 719 b 389 825 356 729 389 772 "},"‘":{"ha":293,"x_min":0,"x_max":0,"o":"m 140 813 b 239 726 194 822 239 792 b 149 633 239 667 199 633 b 54 761 86 633 54 683 b 225 997 54 863 104 978 l 225 918 b 140 813 174 908 140 865 "},"’":{"ha":293,"x_min":0,"x_max":0,"o":"m 153 825 b 54 911 99 815 54 846 b 144 1004 54 971 94 1004 b 239 876 207 1004 239 954 b 68 640 239 775 189 660 l 68 719 b 153 825 119 729 153 772 "},"‚":{"ha":293,"x_min":0,"x_max":0,"o":"m 153 -10 b 54 76 99 -19 54 11 b 144 169 54 136 94 169 b 239 42 207 169 239 119 b 68 -194 239 -60 189 -175 l 68 -115 b 153 -10 119 -106 153 -62 "}," ":{"ha":264,"x_min":0,"x_max":0,"o":""},"¢":{"ha":732,"x_min":0,"x_max":0,"o":"m 417 101 b 558 264 515 115 553 193 l 704 264 b 417 -19 694 111 582 -6 l 417 -128 l 333 -128 l 333 -18 b 32 354 149 4 32 150 b 333 726 32 560 149 706 l 333 822 l 417 822 l 417 728 b 704 450 581 714 688 600 l 558 450 b 417 607 553 515 515 593 l 417 101 m 178 354 b 333 104 178 238 224 128 l 333 604 b 178 354 225 579 178 471 "},"¤":{"ha":686,"x_min":0,"x_max":0,"o":"m 617 481 b 575 328 617 421 601 369 l 664 239 l 585 161 l 499 247 b 343 201 453 218 399 201 b 188 247 286 201 233 217 l 101 161 l 24 239 l 111 326 b 69 481 85 368 69 421 b 111 635 69 540 85 593 l 24 722 l 101 800 l 189 714 b 343 758 233 743 288 758 b 497 713 399 758 453 743 l 583 799 l 664 722 l 575 633 b 617 481 601 592 617 540 m 197 481 b 343 307 197 368 256 307 b 489 481 431 307 489 368 b 343 653 489 593 431 653 b 197 481 256 653 197 593 "},"$":{"ha":825,"x_min":0,"x_max":0,"o":"m 783 251 b 460 -21 783 106 674 -14 l 460 -126 l 376 -126 l 376 -18 b 22 317 179 1 31 113 l 183 317 b 376 121 190 203 260 138 l 376 424 l 364 428 b 60 703 219 468 60 528 b 376 972 60 861 182 967 l 376 1053 l 460 1053 l 460 968 b 760 660 626 946 750 838 l 599 660 b 460 828 588 753 536 808 l 460 557 b 783 251 640 503 783 451 m 219 718 b 376 582 219 642 283 611 l 376 835 b 219 718 281 831 219 786 m 460 117 b 622 249 571 122 622 174 b 460 399 622 329 569 364 l 460 117 "},"€":{"ha":896,"x_min":0,"x_max":0,"o":"m 501 117 b 693 347 640 117 686 226 l 854 347 b 503 -21 836 128 724 -21 b 124 350 285 -21 158 126 l 42 350 l 42 433 l 117 433 b 115 476 115 447 115 463 l 115 513 l 42 513 l 42 596 l 124 596 b 503 972 156 821 283 972 b 854 626 722 972 835 824 l 693 626 b 501 835 678 725 639 835 b 285 596 369 835 306 735 l 543 596 l 543 513 l 276 513 l 276 476 b 278 433 276 463 276 447 l 543 433 l 543 350 l 286 350 b 501 117 307 214 371 117 "},"£":{"ha":781,"x_min":0,"x_max":0,"o":"m 761 64 b 560 -21 701 19 650 -21 b 293 65 432 -21 386 65 b 121 0 235 65 193 46 l 39 117 b 168 374 114 165 168 263 b 167 394 168 381 168 388 l 51 394 l 51 510 l 125 510 b 75 692 101 558 75 613 b 406 972 75 810 156 972 b 744 636 646 972 744 829 l 583 636 b 407 835 583 761 532 835 b 235 678 292 835 235 769 b 288 510 235 611 263 561 l 500 510 l 500 394 l 326 394 b 328 367 328 386 328 376 b 217 147 328 268 285 196 l 218 144 b 343 183 250 160 288 183 b 546 124 436 183 467 124 b 699 186 611 124 653 151 "},"¥":{"ha":818,"x_min":0,"x_max":0,"o":"m 510 424 l 726 424 l 726 340 l 489 340 l 489 261 l 726 261 l 726 178 l 489 178 l 489 0 l 328 0 l 328 178 l 89 178 l 89 261 l 328 261 l 328 340 l 89 340 l 89 424 l 307 424 l 10 953 l 186 953 l 407 521 l 410 521 l 631 953 l 806 953 "},"+":{"ha":781,"x_min":0,"x_max":0,"o":"m 68 386 l 68 522 l 322 522 l 322 785 l 458 785 l 458 522 l 713 522 l 713 386 l 458 386 l 458 124 l 322 124 l 322 386 "},"−":{"ha":781,"x_min":0,"x_max":0,"o":"m 713 529 l 713 392 l 68 392 l 68 529 "},"×":{"ha":781,"x_min":0,"x_max":0,"o":"m 486 454 l 693 247 l 596 150 l 389 357 l 182 150 l 85 247 l 292 454 l 85 660 l 182 757 l 389 550 l 596 757 l 693 660 "},"÷":{"ha":781,"x_min":0,"x_max":0,"o":"m 390 613 b 299 697 332 613 299 643 b 390 782 299 751 332 782 b 482 697 447 782 482 751 b 390 613 482 643 447 613 m 68 522 l 713 522 l 713 386 l 68 386 m 390 124 b 299 208 332 124 299 154 b 390 293 299 263 332 293 b 482 208 447 293 482 263 b 390 124 482 154 447 124 "},"=":{"ha":779,"x_min":0,"x_max":0,"o":"m 710 624 l 710 488 l 72 488 l 72 624 m 710 379 l 710 243 l 72 243 l 72 379 "},"≠":{"ha":779,"x_min":0,"x_max":0,"o":"m 475 488 l 425 379 l 710 379 l 710 243 l 361 243 l 296 106 l 185 106 l 250 243 l 72 243 l 72 379 l 314 379 l 365 488 l 72 488 l 72 624 l 429 624 l 489 750 l 599 750 l 539 624 l 710 624 l 710 488 "},">":{"ha":706,"x_min":0,"x_max":0,"o":"m 72 256 l 518 429 l 518 432 l 72 607 l 72 744 l 639 507 l 639 356 l 72 119 "},"<":{"ha":736,"x_min":0,"x_max":0,"o":"m 67 356 l 67 507 l 633 744 l 633 607 l 188 432 l 188 429 l 633 256 l 633 119 "},"≥":{"ha":706,"x_min":0,"x_max":0,"o":"m 72 296 l 518 450 l 518 453 l 72 607 l 72 744 l 639 526 l 639 375 l 72 158 m 639 117 l 639 -3 l 72 -3 l 72 117 "},"≤":{"ha":736,"x_min":0,"x_max":0,"o":"m 67 375 l 67 526 l 633 744 l 633 607 l 188 453 l 188 450 l 633 296 l 633 158 m 633 -3 l 67 -3 l 67 117 l 633 117 "},"±":{"ha":781,"x_min":0,"x_max":0,"o":"m 68 561 l 322 561 l 322 785 l 458 785 l 458 561 l 713 561 l 713 425 l 458 425 l 458 201 l 322 201 l 322 425 l 68 425 m 713 119 l 713 0 l 68 0 l 68 119 "},"≈":{"ha":772,"x_min":0,"x_max":0,"o":"m 550 464 b 231 517 450 464 321 517 b 160 454 175 517 160 494 l 49 454 b 210 640 49 551 88 640 b 528 588 310 640 438 588 b 600 650 583 588 600 610 l 710 650 b 550 464 710 553 671 464 m 550 219 b 231 272 450 219 321 272 b 160 210 175 272 160 250 l 49 210 b 210 397 49 308 88 397 b 528 343 310 397 438 343 b 600 406 583 343 600 367 l 710 406 b 550 219 710 308 671 219 "},"~":{"ha":568,"x_min":0,"x_max":0,"o":"m 44 361 b 182 550 44 478 93 550 b 363 490 268 550 311 490 b 415 550 404 490 415 525 l 526 550 b 389 361 526 433 478 361 b 210 422 304 361 260 422 b 156 361 167 422 156 388 l 44 361 "},"¬":{"ha":761,"x_min":0,"x_max":0,"o":"m 78 431 l 78 567 l 658 567 l 658 196 l 503 196 l 503 431 "},"∅":{"ha":1107,"x_min":0,"x_max":0,"o":"m 943 814 b 1065 479 1019 728 1065 613 b 554 -21 1065 182 840 -21 b 221 92 426 -21 310 19 l 131 1 l 75 57 l 164 146 b 42 479 88 231 42 346 b 554 981 42 776 268 981 b 886 868 682 981 797 940 l 976 958 l 1032 903 l 943 814 m 119 479 b 221 203 119 369 157 274 l 829 811 b 554 901 754 869 658 901 b 119 479 314 901 119 731 m 554 58 b 988 479 793 58 988 229 b 886 757 988 590 950 686 l 278 149 b 554 58 353 92 449 58 "},"∞":{"ha":997,"x_min":0,"x_max":0,"o":"m 43 422 b 253 669 43 592 146 669 b 499 531 371 669 444 593 l 501 531 b 744 669 554 593 626 669 b 954 422 851 669 954 592 b 744 176 954 256 851 176 b 501 331 626 176 554 268 l 499 331 b 253 176 444 268 371 176 b 43 422 146 176 43 256 m 272 301 b 436 424 346 301 396 374 b 272 546 396 474 346 546 b 167 424 207 546 167 501 b 272 301 167 346 207 301 m 725 301 b 831 424 790 301 831 346 b 725 546 831 501 790 546 b 561 424 653 546 601 474 b 725 301 601 374 653 301 "},"∫":{"ha":482,"x_min":0,"x_max":0,"o":"m 311 -7 b 106 -244 311 -149 250 -244 b -11 -231 56 -244 15 -237 l -11 -101 b 151 39 111 -119 151 -64 l 151 790 b 356 1028 151 932 213 1028 b 474 1014 406 1028 447 1021 l 474 885 b 311 744 351 903 311 847 l 311 -7 "},"∏":{"ha":983,"x_min":0,"x_max":0,"o":"m 893 993 l 893 -139 l 732 -139 l 732 857 l 251 857 l 251 -139 l 90 -139 l 90 993 "},"∑":{"ha":853,"x_min":0,"x_max":0,"o":"m 425 438 l 425 440 l 51 854 l 51 993 l 790 993 l 790 857 l 240 857 l 240 854 l 574 482 l 574 404 l 231 0 l 231 -3 l 804 -3 l 804 -139 l 51 -139 l 51 1 "},"√":{"ha":836,"x_min":0,"x_max":0,"o":"m 231 458 l 364 57 l 367 57 l 664 993 l 824 993 l 439 -139 l 293 -139 l 124 322 l 19 322 l 19 458 "},"∂":{"ha":776,"x_min":0,"x_max":0,"o":"m 564 569 b 226 857 529 763 390 847 l 226 993 b 724 439 581 983 724 729 b 354 -21 724 207 621 -21 b 50 301 171 -21 50 103 b 365 654 50 485 183 654 b 564 567 456 654 521 622 m 367 111 b 564 340 490 111 564 218 b 403 522 564 436 503 522 b 207 293 282 522 207 414 b 367 111 207 186 275 111 "},"%":{"ha":1154,"x_min":0,"x_max":0,"o":"m 265 428 b 32 704 107 428 32 554 b 265 981 32 853 107 981 b 499 704 426 981 499 853 b 265 428 499 554 426 428 m 381 0 l 269 0 l 774 960 l 885 960 m 265 533 b 375 704 342 533 375 599 b 265 874 375 810 342 874 b 156 704 189 874 156 810 b 265 533 156 599 189 533 m 889 -21 b 656 256 731 -21 656 107 b 889 532 656 406 731 532 b 1122 256 1050 532 1122 406 b 889 -21 1122 107 1050 -21 m 889 86 b 999 256 965 86 999 150 b 889 426 999 361 965 426 b 779 256 814 426 779 361 b 889 86 779 150 814 86 "},"‰":{"ha":1675,"x_min":0,"x_max":0,"o":"m 265 428 b 32 704 107 428 32 554 b 265 981 32 853 107 981 b 499 704 426 981 499 853 b 265 428 499 554 426 428 m 381 0 l 269 0 l 774 960 l 885 960 m 265 533 b 375 704 342 533 375 599 b 265 874 375 810 342 874 b 156 704 189 874 156 810 b 265 533 156 599 189 533 m 889 -21 b 656 256 731 -21 656 107 b 889 532 656 406 731 532 b 1122 256 1050 532 1122 406 b 889 -21 1122 107 1050 -21 m 1410 -21 b 1176 256 1251 -21 1176 107 b 1410 532 1176 406 1251 532 b 1643 256 1571 532 1643 406 b 1410 -21 1643 107 1571 -21 m 889 86 b 999 256 965 86 999 150 b 889 426 999 361 965 426 b 779 256 814 426 779 361 b 889 86 779 150 814 86 m 1410 86 b 1519 256 1486 86 1519 150 b 1410 426 1519 361 1486 426 b 1300 256 1335 426 1300 361 b 1410 86 1300 150 1335 86 "},"↑":{"ha":869,"x_min":0,"x_max":0,"o":"m 746 511 l 494 747 l 494 0 l 375 0 l 375 747 l 124 511 l 42 596 l 435 960 l 828 596 "},"↗":{"ha":825,"x_min":0,"x_max":0,"o":"m 665 296 l 654 642 l 126 114 l 42 197 l 569 725 l 225 736 l 226 854 l 763 833 l 783 299 "},"→":{"ha":1043,"x_min":0,"x_max":0,"o":"m 553 132 l 789 383 l 42 383 l 42 503 l 789 503 l 553 756 l 638 836 l 1001 443 l 638 51 "},"↘":{"ha":814,"x_min":0,"x_max":0,"o":"m 763 61 l 226 40 l 225 158 l 569 169 l 42 697 l 126 781 l 654 253 l 665 599 l 783 596 "},"↓":{"ha":869,"x_min":0,"x_max":0,"o":"m 435 -56 l 42 308 l 124 393 l 375 157 l 375 904 l 494 904 l 494 157 l 746 393 l 828 308 "},"↙":{"ha":814,"x_min":0,"x_max":0,"o":"m 146 599 l 157 253 l 685 781 l 769 697 l 242 169 l 586 158 l 585 40 l 49 61 l 28 596 "},"←":{"ha":1043,"x_min":0,"x_max":0,"o":"m 42 443 l 406 836 l 490 756 l 254 503 l 1001 503 l 1001 383 l 254 383 l 490 132 l 406 51 "},"↖":{"ha":814,"x_min":0,"x_max":0,"o":"m 49 833 l 585 854 l 586 736 l 242 725 l 769 197 l 685 114 l 157 642 l 146 296 l 28 299 "},"↔":{"ha":1583,"x_min":0,"x_max":0,"o":"m 1542 443 l 1178 51 l 1093 132 l 1329 383 l 254 383 l 490 132 l 406 50 l 42 443 l 406 836 l 490 756 l 254 503 l 1329 503 l 1093 756 l 1178 836 "},"↕":{"ha":869,"x_min":0,"x_max":0,"o":"m 746 203 l 828 118 l 435 -246 l 42 118 l 124 203 l 375 -33 l 375 879 l 124 643 l 42 728 l 435 1092 l 828 728 l 746 643 l 494 879 l 494 -33 "},"◊":{"ha":781,"x_min":0,"x_max":0,"o":"m 311 993 l 468 993 l 749 496 l 469 0 l 313 0 l 32 497 m 589 493 l 390 857 l 388 857 l 192 499 l 390 136 l 393 136 "},"@":{"ha":1235,"x_min":0,"x_max":0,"o":"m 935 110 b 742 222 846 110 779 151 l 739 222 b 551 115 703 157 647 115 b 324 403 425 115 324 221 b 579 718 324 594 439 718 b 761 606 671 718 736 667 l 764 606 l 778 708 l 904 708 l 860 360 b 944 215 847 265 878 215 b 1081 444 1026 215 1081 290 b 632 885 1081 694 911 885 b 161 414 350 885 161 660 b 618 -42 161 140 351 -42 b 867 0 704 -42 785 -33 l 906 -89 b 618 -149 814 -136 718 -149 b 47 414 281 -149 47 71 b 632 992 47 729 290 992 b 1190 449 983 992 1190 746 b 935 110 1190 189 1057 110 m 581 231 b 739 438 688 231 739 321 b 607 603 739 549 683 603 b 449 396 506 603 449 517 b 581 231 449 301 488 231 "},"&":{"ha":864,"x_min":0,"x_max":0,"o":"m 692 0 l 625 81 b 358 -21 557 19 468 -21 b 47 244 156 -21 47 93 b 256 532 47 392 151 471 b 139 776 186 617 139 683 b 393 1014 139 893 222 1013 b 647 776 553 1015 647 893 b 442 519 647 664 572 594 l 624 300 b 678 478 650 356 668 417 l 815 478 b 715 189 803 383 771 278 l 871 0 m 393 876 b 281 767 321 876 281 826 b 374 600 281 711 321 661 b 506 767 456 650 506 694 b 393 876 506 826 467 876 m 368 117 b 540 185 438 117 494 143 l 322 451 b 197 258 239 396 197 333 b 368 117 197 183 256 117 "},"¶":{"ha":786,"x_min":0,"x_max":0,"o":"m 313 465 b 39 725 133 465 39 558 b 313 993 39 892 133 993 l 699 993 l 699 0 l 589 0 l 589 878 l 485 878 l 485 0 l 375 0 l 375 465 "},"§":{"ha":828,"x_min":0,"x_max":0,"o":"m 790 326 b 635 133 790 226 733 160 b 696 -28 671 90 696 39 b 418 -244 696 -149 606 -244 b 128 -6 215 -244 135 -132 l 275 -6 b 419 -129 281 -64 294 -129 b 550 -40 515 -129 550 -93 b 338 157 550 47 424 108 b 39 443 175 247 39 297 b 196 635 39 540 94 607 b 133 797 158 678 133 729 b 411 1014 133 918 224 1014 b 701 775 614 1014 694 901 l 554 775 b 410 899 549 833 535 899 b 279 810 314 899 279 863 b 492 613 279 722 404 661 b 790 326 654 524 790 463 m 540 211 b 643 300 614 225 643 254 b 408 490 643 371 546 418 b 289 558 371 511 329 532 b 186 469 215 544 186 515 b 421 279 186 389 283 351 b 540 211 458 258 500 238 "},"©":{"ha":1135,"x_min":0,"x_max":0,"o":"m 568 -22 b 56 496 254 -22 56 199 b 568 1015 56 793 254 1015 b 1079 496 882 1015 1079 793 b 568 -22 1079 199 882 -22 m 568 38 b 1006 496 839 38 1006 242 b 568 956 1006 751 839 956 b 129 496 296 956 129 751 b 568 38 129 242 296 38 m 714 581 b 569 699 708 618 681 699 b 408 496 446 699 408 607 b 569 294 408 386 446 294 b 714 414 681 294 708 371 l 838 414 b 576 185 829 286 735 185 b 283 496 390 185 283 313 b 565 808 283 678 385 808 b 838 581 726 808 824 707 l 714 581 "},"®":{"ha":735,"x_min":0,"x_max":0,"o":"m 368 343 b 36 679 182 343 36 486 b 368 1015 36 872 182 1015 b 699 679 553 1015 699 872 b 368 343 699 486 553 343 m 368 403 b 635 679 521 403 635 517 b 368 956 635 840 521 956 b 100 679 214 956 100 840 b 368 403 100 517 214 403 m 238 861 l 390 861 b 513 758 464 861 513 824 b 446 669 513 708 486 679 l 446 668 b 517 507 528 653 497 513 l 517 503 l 443 503 b 367 642 428 518 463 642 l 307 642 l 307 503 l 238 503 m 307 701 l 368 701 b 442 751 406 701 442 704 b 368 800 442 799 406 800 l 307 800 "},"™":{"ha":914,"x_min":0,"x_max":0,"o":"m 44 908 l 44 993 l 376 993 l 376 908 l 257 908 l 257 610 l 164 610 l 164 908 m 557 993 l 639 732 l 640 732 l 725 993 l 856 993 l 856 610 l 765 610 l 765 885 l 763 885 l 679 610 l 600 610 l 518 885 l 515 885 l 515 610 l 428 610 l 428 993 "},"°":{"ha":514,"x_min":0,"x_max":0,"o":"m 257 593 b 46 804 117 593 46 704 b 257 1014 46 903 117 1014 b 468 804 396 1014 468 903 b 257 593 468 704 396 593 m 257 686 b 372 804 324 686 372 732 b 257 921 372 875 324 921 b 143 804 190 921 143 875 b 257 686 143 732 190 686 "},"|":{"ha":311,"x_min":0,"x_max":0,"o":"m 214 1038 l 214 -182 l 99 -182 l 99 1038 "},"¦":{"ha":311,"x_min":0,"x_max":0,"o":"m 214 1038 l 214 533 l 99 533 l 99 1038 m 214 340 l 214 -182 l 99 -182 l 99 340 "},"†":{"ha":743,"x_min":0,"x_max":0,"o":"m 47 575 l 47 711 l 292 711 l 292 993 l 453 993 l 453 711 l 696 711 l 696 575 l 453 575 l 453 -246 l 292 -246 l 292 575 "},"‡":{"ha":743,"x_min":0,"x_max":0,"o":"m 47 131 l 47 267 l 292 267 l 292 575 l 47 575 l 47 711 l 292 711 l 292 993 l 453 993 l 453 711 l 696 711 l 696 575 l 453 575 l 453 267 l 696 267 l 696 131 l 453 131 l 453 -246 l 292 -246 l 292 131 "},"^":{"ha":635,"x_min":0,"x_max":0,"o":"m 382 993 l 622 611 l 471 611 l 318 863 l 317 863 l 165 611 l 13 611 l 254 993 "},"̈":{"ha":0,"x_min":0,"x_max":0,"o":"m -442 925 b -360 1007 -442 969 -412 1007 b -279 925 -308 1007 -279 969 b -360 846 -279 883 -308 846 b -442 925 -412 846 -442 883 m -204 925 b -122 1007 -204 969 -175 1007 b -42 925 -71 1007 -42 969 b -122 846 -42 883 -71 846 b -204 925 -175 846 -204 883 "},"̇":{"ha":0,"x_min":0,"x_max":0,"o":"m -204 925 b -122 1007 -204 969 -175 1007 b -42 925 -71 1007 -42 969 b -122 846 -42 883 -71 846 b -204 925 -175 846 -204 883 "},"̀":{"ha":0,"x_min":0,"x_max":0,"o":"m -42 822 l -156 822 l -271 1004 l -101 1004 "},"́":{"ha":0,"x_min":0,"x_max":0,"o":"m -42 1004 l -157 822 l -271 822 l -211 1004 "},"̋":{"ha":0,"x_min":0,"x_max":0,"o":"m -274 1004 l -389 822 l -503 822 l -443 1004 m -42 1004 l -157 822 l -271 822 l -211 1004 "},"̂":{"ha":0,"x_min":0,"x_max":0,"o":"m -331 1006 l -176 1006 l -42 824 l -179 824 l -253 933 l -256 933 l -328 824 l -465 824 "},"̌":{"ha":0,"x_min":0,"x_max":0,"o":"m -328 1004 l -256 894 l -253 894 l -179 1004 l -42 1004 l -176 822 l -331 822 l -465 1004 "},"̆":{"ha":0,"x_min":0,"x_max":0,"o":"m -232 817 b -424 1004 -340 817 -419 881 l -326 1004 b -232 917 -322 946 -292 917 b -139 1004 -172 917 -143 946 l -42 1004 b -232 817 -47 885 -122 817 "},"̊":{"ha":0,"x_min":0,"x_max":0,"o":"m -169 804 b -297 931 -239 804 -297 853 b -169 1058 -297 1006 -239 1058 b -42 931 -100 1058 -42 1006 b -169 804 -42 853 -100 804 m -169 865 b -107 931 -136 865 -107 890 b -169 996 -107 971 -136 996 b -232 931 -203 996 -232 971 b -169 865 -232 890 -203 865 "},"̃":{"ha":0,"x_min":0,"x_max":0,"o":"m -453 853 b -344 1001 -453 958 -404 1001 b -172 950 -278 1001 -214 950 b -136 999 -140 950 -136 978 l -42 999 b -151 850 -42 890 -90 850 b -324 901 -218 850 -281 901 b -360 853 -356 901 -360 872 l -453 853 "},"̄":{"ha":0,"x_min":0,"x_max":0,"o":"m -42 972 l -42 861 l -412 861 l -412 972 "},"̒":{"ha":0,"x_min":0,"x_max":0,"o":"m -111 943 b -21 872 -62 957 -21 931 b -97 792 -21 825 -54 792 b -187 913 -157 792 -187 843 b -35 1090 -187 982 -149 1074 l -35 1032 b -111 943 -81 1024 -111 990 "},"̦":{"ha":0,"x_min":0,"x_max":0,"o":"m -119 -228 b -208 -158 -168 -242 -208 -215 b -129 -76 -208 -111 -172 -76 b -42 -196 -71 -76 -42 -128 b -196 -365 -42 -267 -81 -349 l -196 -307 b -119 -228 -149 -299 -119 -275 "},"̧":{"ha":0,"x_min":0,"x_max":0,"o":"m -179 -79 l -179 -82 b -39 -168 -118 -74 -39 -96 b -194 -274 -39 -235 -114 -274 b -346 -233 -254 -274 -311 -257 l -312 -193 b -211 -214 -282 -206 -251 -214 b -139 -167 -172 -214 -139 -196 b -204 -129 -139 -140 -161 -129 b -257 -139 -219 -129 -243 -133 l -276 -110 l -197 -11 l -124 -11 "},"̨":{"ha":0,"x_min":0,"x_max":0,"o":"m -139 -246 b -275 -139 -229 -246 -275 -204 b -172 0 -275 -74 -221 -21 l -71 0 b -154 -108 -124 -42 -154 -78 b -106 -147 -154 -133 -133 -147 b -42 -135 -81 -147 -61 -142 l -42 -232 b -139 -246 -69 -240 -106 -246 "},"̵":{"ha":0,"x_min":0,"x_max":0,"o":"m -42 461 l -626 461 l -626 567 l -42 567 "},"̶":{"ha":0,"x_min":0,"x_max":0,"o":"m -42 425 l -754 425 l -754 575 l -42 575 "},"̷":{"ha":0,"x_min":0,"x_max":0,"o":"m -731 -14 l -44 674 l -96 725 l -781 38 "},"̸":{"ha":0,"x_min":0,"x_max":0,"o":"m -731 -14 l -44 674 l -96 725 l -781 38 "},"´":{"ha":672,"x_min":0,"x_max":0,"o":"m 504 1004 l 389 822 l 275 822 l 335 1004 "},"˘":{"ha":693,"x_min":0,"x_max":0,"o":"m 356 817 b 164 1004 247 817 168 881 l 261 1004 b 356 917 265 946 296 917 b 449 1004 415 917 444 946 l 546 1004 b 356 817 540 885 465 817 "},"ˇ":{"ha":694,"x_min":0,"x_max":0,"o":"m 274 1004 l 346 894 l 349 894 l 422 1004 l 560 1004 l 425 822 l 271 822 l 136 1004 "},"¸":{"ha":697,"x_min":0,"x_max":0,"o":"m 332 -79 l 332 -82 b 472 -168 393 -74 472 -96 b 317 -274 472 -235 397 -274 b 165 -233 257 -274 200 -257 l 199 -193 b 300 -214 229 -206 260 -214 b 372 -167 339 -214 372 -196 b 307 -129 372 -140 350 -129 b 254 -139 292 -129 268 -133 l 235 -110 l 314 -11 l 388 -11 "},"ˆ":{"ha":600,"x_min":0,"x_max":0,"o":"m 271 1006 l 425 1006 l 560 824 l 422 824 l 349 933 l 346 933 l 274 824 l 136 824 "},"¨":{"ha":697,"x_min":0,"x_max":0,"o":"m 149 925 b 231 1007 149 969 178 1007 b 311 925 282 1007 311 969 b 231 846 311 883 282 846 b 149 925 178 846 149 883 m 386 925 b 468 1007 386 969 415 1007 b 549 925 519 1007 549 969 b 468 846 549 883 519 846 b 386 925 415 846 386 883 "},"˙":{"ha":708,"x_min":0,"x_max":0,"o":"m 272 925 b 354 1007 272 969 301 1007 b 435 925 406 1007 435 969 b 354 846 435 883 406 846 b 272 925 301 846 272 883 "},"`":{"ha":906,"x_min":0,"x_max":0,"o":"m 397 822 l 283 822 l 168 1004 l 338 1004 "},"˝":{"ha":747,"x_min":0,"x_max":0,"o":"m 401 1004 l 286 822 l 172 822 l 232 1004 m 633 1004 l 518 822 l 404 822 l 464 1004 "},"¯":{"ha":694,"x_min":0,"x_max":0,"o":"m 533 972 l 533 861 l 163 861 l 163 972 "},"˛":{"ha":699,"x_min":0,"x_max":0,"o":"m 311 -246 b 175 -139 221 -246 175 -204 b 278 0 175 -74 229 -21 l 379 0 b 296 -108 326 -42 296 -78 b 344 -147 296 -133 317 -147 b 408 -135 369 -147 389 -142 l 408 -232 b 311 -246 381 -240 344 -246 "},"˚":{"ha":704,"x_min":0,"x_max":0,"o":"m 351 804 b 224 931 282 804 224 853 b 351 1058 224 1006 282 1058 b 479 931 421 1058 479 1006 b 351 804 479 853 421 804 m 351 865 b 414 931 385 865 414 890 b 351 996 414 971 385 996 b 289 931 318 996 289 971 b 351 865 289 890 318 865 "},"˜":{"ha":694,"x_min":0,"x_max":0,"o":"m 142 853 b 250 1001 142 958 190 1001 b 422 950 317 1001 381 950 b 458 999 454 950 458 978 l 553 999 b 443 850 553 890 504 850 b 271 901 376 850 314 901 b 235 853 239 901 235 872 l 142 853 "}}}
